<svg width="1502" height="264" viewBox="0 0 1502 264" fill="none" xmlns="http://www.w3.org/2000/svg">
<path d="M58.5942 58.087C79.1888 58.3263 99.7845 58.4363 120.38 58.4178C126.215 58.4256 132.049 58.4702 137.883 58.5508C141.578 58.6281 145.97 58.912 149.584 58.7533C150.055 59.5976 150.188 59.5307 151.2 59.7864C163.58 62.9119 170.434 68.7999 177.001 79.8257C178.095 82.3701 179.428 86.024 180.231 88.6947C180.421 89.7003 181.098 94.5125 181.31 95.0863C181.555 99.1512 181.703 120.508 181.077 123.761L180.343 121.7L180.186 121.736C179.253 120.745 179.558 118.962 178.179 118.573C176.144 118.001 173.909 117.509 172.003 116.574C161.206 111.279 150.361 106.256 140.174 99.8465L136.558 99.8662C137.943 102.565 138.345 103.139 138.454 106.173C136.226 100.172 134.443 96.0717 127.91 94.3884C103.242 92.9191 82.5903 100.59 65.4394 76.4638C73.7004 80.2556 83.2723 79.8421 92.1827 80.0208C101.132 80.207 110.082 80.3344 119.034 80.4032C122.892 80.8465 127.299 80.5637 131.264 80.8171C132.165 80.9821 135.559 81.4325 136.209 80.8253L135.899 80.4374C135.22 80.2794 134.43 80.3504 133.725 80.3764C131.079 80.3876 128.728 79.8205 126.004 80.016C108.87 77.4363 89.1304 79.398 72.9203 72.3008C65.9905 69.2663 62.366 64.3548 58.5942 58.087Z" fill="#B6B6B6"/>
<path d="M127.91 94.3883C130.957 94.0171 133.93 94.1918 136.949 94.0803C148.263 93.6633 159.501 95.7629 168.644 102.822C173.848 106.84 179.757 114.883 180.343 121.7L180.186 121.736C179.253 120.745 179.558 118.962 178.179 118.573C176.144 118.001 173.909 117.509 172.003 116.574C161.206 111.279 150.36 106.256 140.174 99.8464L136.558 99.8661C137.943 102.565 138.345 103.139 138.454 106.173C136.226 100.172 134.443 96.0717 127.91 94.3883Z" fill="#8C8C8C"/>
<path d="M136.558 99.8661L140.174 99.8464C150.36 106.256 161.206 111.279 172.003 116.574C173.909 117.509 176.144 118.001 178.179 118.573C179.558 118.962 179.253 120.745 180.186 121.736L180.343 121.7L181.077 123.761C181.375 131.408 181.617 208.86 181.056 209.839C180.602 209.772 180.149 209.7 179.697 209.622C167.164 207.467 155.612 201.188 148.195 190.654C144.907 186.978 141.617 177.587 141.207 172.626C139.388 150.638 143.541 127.825 138.454 106.173C138.345 103.139 137.943 102.565 136.558 99.8661Z" fill="#E9E9E9"/>
<path d="M148.195 190.654C150.11 191.604 151.112 192.883 152.184 194.517C153.975 197.245 168.859 207.355 171.554 206.839L173.02 205.054L160.393 191.489C163.521 194.189 166.359 198.257 170.294 201.652C172.771 203.789 179.878 208.67 181.056 209.839C180.602 209.772 180.149 209.7 179.697 209.622C167.164 207.467 155.612 201.188 148.195 190.654Z" fill="#480F13"/>
<path d="M149.584 58.7533C151.798 58.2646 159.781 58.4144 162.406 58.4185L187.295 58.4668L267.401 58.1487C265.172 70.5691 261.238 79.334 250.382 87.1358C238.908 95.3816 227.512 94.6154 214.189 94.4363C208.33 94.3575 202.028 94.5723 196.148 94.3066C193.524 94.3185 183.506 94.1528 181.634 94.5199L181.31 95.0862C181.098 94.5125 180.421 89.7002 180.231 88.6947C179.428 86.024 178.095 82.37 177.001 79.8257C170.434 68.7999 163.58 62.9119 151.2 59.7863C150.188 59.5307 150.055 59.5976 149.584 58.7533Z" fill="#E9E9E9"/>
<path d="M149.584 58.7533C161.436 58.6228 177.861 58.1617 189.414 58.7551C192.444 61.1256 194.503 65.2883 195.261 65.635C198.172 66.7453 199.347 67.3622 201.622 69.536C201.86 69.7634 203.096 70.996 203.234 71.0733C204.47 74.0818 206.224 78.4318 205.394 81.7019L204.899 82.1627L204.759 82.2422C201.496 84.1177 191.989 79.813 189.214 77.3935L186.966 77.3348C183.685 77.8681 180.03 78.4652 177.001 79.8257C170.434 68.7999 163.58 62.9119 151.2 59.7863C150.188 59.5307 150.055 59.5976 149.584 58.7533Z" fill="#FBFBFB"/>
<path d="M189.214 77.3936C195.151 77.2293 200.321 77.4281 204.933 81.6655L204.9 82.1627L204.759 82.2422C201.496 84.1177 191.99 79.8131 189.214 77.3936Z" fill="#606060"/>
<path d="M186.966 77.3349C188.311 76.9685 189.358 76.7091 190.754 76.5464C192.528 76.339 195.222 77.1985 196.624 76.29L197.023 75.4966C196.165 73.2908 194.296 74.3781 193.158 73.3956C197.599 73.1938 204.147 77.0919 204.933 81.6655C200.321 77.4282 195.151 77.2294 189.214 77.3936L186.966 77.3349Z" fill="#CBCACA"/>
<path d="M180.231 88.6947C184.691 83.6926 188.712 82.3976 195.399 82.7733L188.83 83.5202C186.892 89.096 182.61 89.5026 182.214 92.8938C184.117 94.5077 192.99 93.4352 196.148 94.3066C193.524 94.3185 183.506 94.1528 181.634 94.5199L181.31 95.0863C181.098 94.5125 180.421 89.7003 180.231 88.6947Z" fill="#606060"/>
<path d="M195.261 65.6349C197.268 64.4819 208.509 63.0802 210.147 63.4863C208.553 63.7205 206.849 63.9769 205.269 64.257C203.666 64.5421 202.824 66.9437 201.386 68.0697C202.364 69.021 202.94 69.4832 203.513 70.7489L203.234 71.0733C203.096 70.996 201.86 69.7634 201.622 69.536C199.347 67.3621 198.172 66.7453 195.261 65.6349Z" fill="#606060"/>
<path d="M423.336 112.055C432.15 104.106 446.827 105.624 448.775 117.628C450.148 126.076 449.402 139.887 449.387 148.686C444.99 148.356 439.683 148.376 435.278 148.633C435.297 142.553 435.241 136.336 435.334 130.266C435.438 123.446 435.579 115.679 426.094 120.835C426.261 129.54 426.123 138.767 426.134 147.518C426.231 147.874 426.138 148.006 426.042 148.398C423.566 148.811 415.599 148.403 412.226 148.591C412.122 144.4 413.154 122.433 411.172 120.483C410.374 119.699 409.558 119.285 408.426 119.304C406.522 119.337 404.674 119.893 403.334 121.287C402.262 123.542 402.681 144.919 402.93 148.627C398.477 148.323 393.003 148.463 388.55 148.573C388.713 135.048 388.587 121.283 388.587 107.74C392.45 107.763 396.369 107.707 400.236 107.686C400.722 108.876 401.045 110.574 401.338 111.858C404.574 108.974 406.429 108.062 410.638 107.206C411.948 107.068 413.272 107.059 414.586 107.179C418.434 107.524 420.935 109.155 423.336 112.055Z" fill="white"/>
<path d="M610.19 107.22C611.173 107.108 612.42 107.091 613.411 107.116C617.652 107.218 621.679 108.999 624.61 112.07C631.746 119.662 631.357 136.816 623.423 143.854C617.292 149.295 610.386 149.424 602.716 149.106C602.931 154.074 602.864 159.853 602.938 164.913C598.571 164.773 592.856 164.673 588.584 164.961C588.922 146.346 588.748 126.423 588.592 107.772L600.582 107.668C600.938 109.167 601.25 110.817 601.565 112.337C604.375 109.164 606.059 108.149 610.19 107.22ZM602.846 138.363C605.833 138.633 607.592 138.783 610.542 138.151C611.121 137.82 612.487 137.021 612.88 136.571C616.702 132.194 616.862 120.904 610.301 118.822C609.329 118.513 607.443 118.646 606.416 118.71C605.269 119.144 603.855 119.515 603.143 120.462C602.267 123.839 602.976 134.323 602.846 138.363Z" fill="white"/>
<path d="M523.253 107.723C527.989 107.796 532.727 107.759 537.463 107.613L537.422 137.017C537.407 140.221 537.24 145.664 537.644 148.653C534.19 148.377 529.261 148.479 525.695 148.452L524.868 144.457C521.097 147.548 518.31 149.056 513.304 149.283C507.044 149.566 500.327 145.084 499.496 138.547C498.242 128.708 498.865 117.852 498.861 107.787L512.852 107.695C514.392 110.355 511.486 131.563 514.061 135.457C516.377 138.953 520.804 136.466 523.48 134.748C522.912 127.577 523.298 115.375 523.253 107.723Z" fill="white"/>
<path d="M646.082 107.263C654.943 106.551 668.013 107.487 669.754 118.032C671.249 127.094 670.563 139.377 670.581 148.668C666.93 148.378 662.621 148.492 658.903 148.507L657.816 144.516C653.322 149.451 648.123 150.146 641.788 148.591C631.093 145.504 630.555 130.279 640.686 126.112C645.74 124.032 651.518 123.951 656.925 123.762C656.45 121.661 656.124 120.214 654.194 118.977C650.171 116.404 641.306 118.272 636.834 119.393L636.867 108.827C639.769 108.028 643.102 107.63 646.082 107.263ZM653.218 139.503C654.454 139.151 655.522 138.996 656.279 137.959C657.125 136.173 656.476 133.843 656.762 131.524L651.555 131.782C645.158 133.376 645.852 139.711 653.218 139.503Z" fill="white"/>
<path d="M357.453 107.247C357.938 107.209 358.424 107.176 358.91 107.148C372.337 106.397 381.169 109.719 381.291 124.571C381.354 132.404 381.061 140.832 381.429 148.6C377.424 148.449 373.817 148.485 369.804 148.561L368.589 144.468C364.06 149.647 358.616 150.095 352.168 148.486C344.211 145.346 341.525 135.862 347.109 129.136C351.279 124.112 361.541 124.011 367.75 123.739C367.723 123.623 367.695 123.507 367.666 123.391C367.146 121.321 366.778 120.06 364.835 118.892C360.813 116.475 352.138 118.205 347.737 119.399L347.724 108.809C350.895 108 354.203 107.565 357.453 107.247ZM363.238 139.575C369.062 138.461 367.337 136.481 367.53 131.512L362.692 131.75C356.246 133.084 356.567 139.426 363.238 139.575Z" fill="white"/>
<path d="M467.6 107.263C473.883 106.69 482.641 106.93 487.432 111.484C491.87 115.7 491.799 122.09 491.803 127.729C491.807 134.687 491.629 141.686 491.836 148.635C488.285 148.397 483.743 148.482 480.117 148.453L479.175 144.392C474.614 149.454 469.178 150.265 462.698 148.488C460.657 147.749 458.779 146.584 457.373 144.92C455.191 142.335 454.66 139.112 454.939 135.818C456.208 120.865 474.61 126.181 477.817 123.262C478.013 123.082 477.987 122.466 478.01 122.184C475.479 115.376 463.622 117.804 458.197 119.468L458.212 108.807C461.325 108.016 464.416 107.605 467.6 107.263ZM473.812 139.567C475.108 139.3 476.392 139.178 477.353 138.283C478.555 136.322 477.906 133.97 477.987 131.546L473.36 131.731C466.602 133.075 467.099 139.474 473.812 139.567Z" fill="white"/>
<path d="M298.442 93.653C313.697 94.0699 331.466 93.7202 346.802 93.6362C346.732 97.6997 346.689 101.465 346.825 105.524L329.862 105.519C330.048 114.075 329.89 123.211 329.895 131.814L329.951 148.605C325.716 148.351 319.656 148.398 315.441 148.631L315.48 105.578C310.179 105.381 303.802 105.48 298.519 105.618C298.595 101.63 298.569 97.6402 298.442 93.653Z" fill="white"/>
<path d="M691.188 107.309C697.166 106.886 701.683 107.021 707.564 108.467V118.693C703.126 117.714 690.798 115.379 688.49 120.5C691.184 125.055 709.743 121.033 709.732 134.612C709.724 145.582 702.139 148.687 692.687 149.211C687.035 149.499 682.375 148.731 676.894 147.557L676.96 137.272C680.226 138.043 697.17 141.762 696.855 135.82C693.585 131.861 677.387 134.268 676.033 123.652C674.615 112.556 681.58 108.789 691.188 107.309Z" fill="white"/>
<path d="M545.129 88.5673L559.261 88.5494C559.246 108.305 558.927 128.931 559.324 148.616C555.253 148.331 549.074 148.451 545.044 148.579C545.411 128.897 545.126 108.313 545.129 88.5673Z" fill="white"/>
<path d="M579.712 107.624C580.717 107.627 580.402 107.49 581.059 108.007C581.597 120.294 581.129 136.118 581.122 148.676C577.14 148.366 572.605 148.481 568.568 148.495C567.918 148.614 567.759 148.566 567.109 148.455C566.742 146.088 566.942 137.661 566.95 134.6L566.938 107.721C571.31 107.774 575.333 107.802 579.712 107.624Z" fill="white"/>
<path d="M348.024 171.689C349.793 171.743 350.02 171.429 351.072 172.446C351.69 174.135 351.276 178.005 351.226 180.144C351.431 180.029 351.638 179.916 351.846 179.807C360.073 175.495 363.403 183.648 360.788 190.812C356.997 195.015 353.199 194.079 348.086 193.564C348.103 186.272 348.082 178.98 348.024 171.689ZM351.362 191.475C353.644 191.528 354.605 191.596 356.805 191.065C360.139 187.084 359.616 180.558 352.822 181.456L352.649 181.479C351.505 182.48 351.258 182.529 351.177 184.36C351.076 186.621 351.251 189.196 351.362 191.475Z" fill="white"/>
<path d="M550.703 171.686C551.983 171.66 552.559 171.623 553.842 171.91C554.087 173.983 554.099 191.818 553.791 193.629C551.831 194.889 551.241 192.6 550.788 192.73C548.232 193.471 548.176 194.145 545.192 193.992C542.057 192.965 539.745 190.017 539.978 186.754C540.468 179.889 545.051 178.536 550.74 178.75L550.703 171.686ZM547.011 191.709C548.254 191.436 549.159 191.36 550.046 190.434C551.56 187.602 550.963 184.266 550.432 181.28C549.011 180.964 548.343 181.037 546.922 181.1C541.96 183.273 542.068 189.905 546.718 191.605C546.818 191.64 546.914 191.675 547.011 191.709Z" fill="white"/>
<path d="M447.936 171.701C449.231 171.664 449.784 171.679 451.061 171.861C451.658 174.506 451.042 188.07 451.213 191.56C451.276 192.841 451.339 193.309 450.571 194.033C448.712 193.824 448.315 192.609 447.788 192.796C444.663 193.91 444.956 194.213 441.631 193.764C439.037 192.728 437.007 189.376 437.238 186.679C437.824 179.79 442.425 178.565 448.099 178.762L447.936 171.701ZM444.708 191.684C445.71 191.337 447.19 191.04 447.569 190.102C448.608 187.545 448.43 183.785 447.706 181.274C446.422 180.943 445.45 181.041 444.14 181.088C439.356 183.174 438.93 190.076 444.708 191.684Z" fill="white"/>
<path d="M418.456 178.899C429.6 177.434 431.337 189.853 423.544 193.784C419.874 194.402 416.564 193.865 414.682 190.259C413.636 188.207 413.443 185.823 414.144 183.628C414.987 181.055 416.152 180.054 418.456 178.899ZM422.19 191.564C426.724 188.938 426.116 181.166 420.104 180.973C415.506 183.347 415.261 191.64 422.19 191.564Z" fill="white"/>
<path d="M561.387 178.947C572.891 177.345 574.42 189.99 566.745 193.726C556.158 195.779 553.49 183.411 561.387 178.947ZM565.725 191.489C569.484 188.557 569.08 181.41 563.862 181.07C563.591 181.053 563.32 181.039 563.049 181.028C563.008 181.028 562.971 181.026 562.93 181.026C559.951 182.954 559.142 186.767 561.008 189.816C562.188 191.75 563.747 191.542 565.725 191.489Z" fill="white"/>
<path d="M335.337 178.923C346.621 177.333 348.271 190.058 340.619 193.708C330.152 195.905 327.219 183.303 335.337 178.923ZM339.135 191.583C343.773 188.95 343.099 181.003 336.926 181C332.438 183.669 332.392 191.634 339.135 191.583Z" fill="white"/>
<path d="M484.619 173.533C486.986 173.654 497.321 173.306 498.561 173.912C498.935 175.044 498.939 174.598 498.594 175.705C497.139 176.548 490.115 176.179 487.936 176.179L487.944 182.226C489.751 182.184 496.828 181.679 497.466 183.648C495.67 185.166 490.419 184.789 488.036 184.749C487.836 185.558 487.951 190.068 487.962 191.176C490.697 191.247 497.162 190.362 498.839 192.242L498.754 193.265C497.536 194.048 486.741 193.746 484.667 193.767L484.619 173.533Z" fill="white"/>
<path d="M321.658 173.38C323.435 173.432 326.973 173.295 327.752 175.091C327.679 175.545 327.345 175.821 327.028 176.165C324.805 177.343 316.311 173.978 315.122 180.065C313.381 188.978 316.153 191.379 324.687 191.332C324.73 189.192 324.106 186.009 325.004 184.187C325.307 183.57 326.289 183.557 327.066 183.397C328.103 184.825 327.723 191.392 327.711 193.658C323.204 194.025 318.148 194.419 314.477 191.541C309.208 187.408 310.106 178.386 315.652 174.954C317.691 173.692 319.36 173.592 321.658 173.38Z" fill="white"/>
<path d="M458.598 178.901C459.043 178.849 459.492 178.806 459.941 178.772C466.183 178.309 467.27 182.244 467.589 187.404C465.207 187.309 458.171 186.175 457.648 188.9C458.932 191.965 461.225 191.581 464.094 191.603C465.047 191.35 465.459 191.201 466.443 191.238C466.918 192.288 466.788 191.954 466.625 193.21C464.635 194.197 462.372 194.479 460.201 194.011C452.853 192.4 452.122 182.726 458.598 178.901ZM462.294 185.387L463.89 185.292C464.639 184.426 464.476 184.838 464.468 183.618C463.377 181.433 462.784 181.05 460.427 180.66C459.147 181.174 457.548 182.258 457.299 183.725C458.368 185.961 460.082 185.437 462.294 185.387Z" fill="white"/>
<path d="M375.361 178.911C375.896 178.832 376.434 178.772 376.972 178.729C383.062 178.285 383.978 182.524 384.268 187.402C381.625 187.402 374.909 185.974 374.497 188.969C375.603 191.955 377.966 191.58 380.764 191.606C382.301 191.286 382.104 191.072 383.329 191.635L383.544 192.366C381.893 194.826 376.504 194.55 374.289 192.915C369.387 189.294 369.867 181.916 375.361 178.911ZM377.681 185.385C379.321 185.403 379.711 185.691 380.879 184.869C381.867 182.155 379.265 180.961 376.987 180.617C375.183 181.654 373.595 182.971 374.756 185.119C375.643 185.586 376.668 185.433 377.681 185.385Z" fill="white"/>
<path d="M526.949 178.97C529.02 178.782 535.329 178.214 536.364 180.556C537.481 183.076 537.841 190.99 537.166 193.671C534.817 194.724 535.009 192.526 533.904 192.834C530.334 193.827 531.209 194.326 527.358 193.664C525.933 192.841 525.094 191.601 525.068 189.914C524.986 184.153 531.488 186.843 534.1 184.155C534.267 183.05 534.126 182.855 533.54 181.873C532.267 181.144 528.137 181.347 526.241 181.232L525.706 180.546C526.062 179.648 526.189 179.565 526.949 178.97ZM530.582 192.03C532.56 191.472 535.024 190.5 534.464 187.842L533.785 187.099C533.254 187.092 532.616 187.065 532.093 187.099C530.022 187.391 527.981 187.694 528.207 190.317C528.953 191.483 529.25 191.556 530.582 192.03Z" fill="white"/>
<path d="M566.671 92.2041C576.524 92.0447 581.344 91.0217 581.129 102.74C571.87 102.733 566.92 103.322 566.671 92.2041Z" fill="white"/>
<path d="M397.85 178.686C399.486 178.711 399.412 178.917 400.622 179.722C401.494 180.303 404.726 178.529 406.084 178.565C407.183 178.593 408.852 179.169 409.465 179.938C411.164 182.074 411.135 186.932 411.157 189.615C411.168 191.159 410.953 192.707 409.888 193.709C408.704 193.98 409.112 194.06 408.092 193.587C407.817 191.547 407.88 187.286 407.858 185.046C407.806 183.154 407.691 182.719 406.281 181.626C397.434 179.71 402.915 189.43 400.607 193.06C399.653 193.797 399.523 193.87 398.328 193.973C397.493 192.85 397.842 180.869 397.85 178.686Z" fill="white"/>
<path d="M516.214 173.421C517.186 173.489 517.401 173.515 518.325 173.816C519.231 175.157 518.849 177.189 518.797 178.98C520.745 178.867 522.311 178.376 523.558 180.021L523.231 180.779C522.036 181.729 520.366 181.445 518.774 181.397C518.73 184.017 518.574 187.328 518.83 189.885C519.98 191.659 522.248 190.843 524.092 191.732C523.862 193.071 523.873 193.854 522.381 194.007C513.683 194.899 516.158 187.941 515.55 182.395C515.36 180.698 514.132 181.914 512.714 180.79C512.625 177.977 513.772 179.4 515.03 178.716C516.013 177.001 515.932 175.464 516.214 173.421Z" fill="white"/>
<path d="M504.227 178.913C505.975 178.718 508.97 178.537 510.629 178.993C511.278 179.856 511.081 179.661 511.156 180.911C510.065 181.615 507.025 180.692 504.661 181.323C503.53 182.214 503.834 181.762 503.533 183.272C504.71 186.527 511.215 184.303 511.965 188.398C512.614 191.949 510.202 193.345 507.148 193.949C505.593 194.04 502.765 194.12 501.414 193.449C500.609 192.505 500.798 192.944 500.706 191.665C502.509 190.521 506.907 193.425 509.029 189.93C508.035 186.8 497.67 187.39 501.032 181.099C501.615 180.01 503.136 179.403 504.227 178.913Z" fill="white"/>
<path d="M470.228 171.687C471.452 171.656 472.213 171.555 473.349 172.053C473.749 174.461 473.534 190.61 473.538 193.794C472.432 193.815 471.271 193.989 470.417 193.336C469.983 190.354 470.239 175.462 470.228 171.687Z" fill="white"/>
<path d="M387.095 178.702L388.932 178.981C391.018 181.689 390.91 178.224 394.87 178.812C396.028 179.588 395.772 179.197 396.206 180.387C394.992 182.977 392.818 181.039 390.866 182.571C390.031 183.672 390.105 184.068 390.131 185.484C390.042 187.863 391.007 191.837 389.307 193.436C388.075 193.818 388.398 193.919 387.363 193.541C386.836 190.182 387.084 182.521 387.095 178.702Z" fill="white"/>
<path d="M364.817 178.887C366.048 178.849 366.534 178.886 367.753 179.069C368.255 179.875 368.075 191.803 368.073 193.739C366.949 193.791 366.071 193.923 365.045 193.436C364.654 191.675 364.824 181.553 364.817 178.887Z" fill="white"/>
<path d="M365.101 173.088C365.621 172.605 366.364 172.446 367.036 172.673C367.708 172.901 368.203 173.478 368.324 174.178C368.446 174.878 368.175 175.589 367.619 176.03C366.804 176.677 365.624 176.563 364.946 175.772C364.269 174.981 364.337 173.796 365.101 173.088Z" fill="white"/>
<path d="M126.004 80.016C128.728 79.8205 131.079 80.3876 133.725 80.3765L131.264 80.8172C127.298 80.5637 122.892 80.8465 119.033 80.4032C121.218 80.1293 123.373 80.3913 126.004 80.016Z" fill="#B68D7A" fill-opacity="0.262745"/>
<path d="M133.725 80.3764C134.43 80.3504 135.22 80.2795 135.899 80.4374L136.209 80.8253C135.559 81.4325 132.165 80.9822 131.264 80.8172L133.725 80.3764Z" fill="#B68D7A" fill-opacity="0.85098"/>
<path d="M1132.82 86.7018L1150.65 86.6985C1154.54 95.5798 1158.38 105.38 1162.1 114.4L1173.07 86.6999L1190.91 86.7001V137.16L1177.34 137.161V125.192L1177.35 105.969C1174.07 113.733 1170.91 121.822 1167.71 129.645L1156.02 129.645L1146.37 107.074C1146.66 116.523 1146.4 127.592 1146.4 137.16L1132.83 137.161L1132.82 86.7018Z" fill="white"/>
<path d="M1099.56 85.7734C1113.86 84.7248 1126.32 95.4772 1127.46 109.846C1128.6 124.216 1117.98 136.814 1103.7 138.051C1089.27 139.301 1076.6 128.509 1075.45 114.006C1074.3 99.5018 1085.12 86.8317 1099.56 85.7734ZM1103.36 125.934C1106.1 125.3 1108.25 124.377 1109.76 121.792C1112.32 117.414 1112.24 110.919 1111.26 106.113C1110.07 100.181 1105.75 97.2537 1099.86 97.9109C1090.68 99.5158 1090.37 109.408 1091.48 116.928C1092.5 123.765 1096.66 126.396 1103.36 125.934Z" fill="white"/>
<path d="M1307.1 86.7004L1328.53 86.7008L1343.37 137.16L1329.14 137.16L1326.45 127.297L1325.98 125.586L1309.52 125.584L1306.39 137.16L1292.26 137.16C1294.06 131.731 1295.81 125.124 1297.45 119.569L1307.1 86.7004ZM1312.66 114.015L1318.05 114.014H1322.83C1322.32 112.139 1318 95.9314 1317.64 95.6448L1312.66 114.015Z" fill="white"/>
<path d="M1209.66 86.7016L1231.1 86.7008C1232.6 92.2011 1234.44 98.0675 1236.06 103.562L1245.94 137.16L1231.69 137.16L1229.16 127.842L1228.53 125.586L1212.08 125.586L1208.95 137.161L1194.84 137.16L1209.66 86.7016ZM1215.22 114.014H1220.64H1225.38C1224.85 112.057 1220.62 96.0247 1220.2 95.6422L1215.22 114.014Z" fill="white"/>
<path d="M1263.89 86.0657C1279.96 85.6008 1292.28 90.2381 1289.76 109.136C1288.44 118.994 1279.9 123.204 1270.86 123.771C1269.57 123.852 1265.08 123.505 1264.35 124.026L1264.3 124.617L1264.3 137.16L1249.73 137.161V87.7504C1254.73 86.6917 1258.83 86.2655 1263.89 86.0657ZM1264.29 112.699C1267.69 112.961 1270.57 113.337 1273.64 111.524C1274.29 110.927 1274.98 110.212 1275.25 109.356C1277.19 103.106 1275.84 97.2509 1268.61 96.9734C1267.31 96.9362 1266.01 96.966 1264.71 97.0624C1264.11 97.6723 1264.27 98.5977 1264.27 99.5968L1264.29 112.699Z" fill="white"/>
<path d="M1460.87 86.2742C1468.85 85.3934 1481.82 86.7712 1484.25 96.0858C1486.82 105.923 1483.12 112.979 1473.46 115.99L1488.89 137.16H1480.9L1476.55 131.12L1466.35 117.023C1463.63 117.116 1460.69 116.926 1457.96 116.804V137.16L1450.96 137.16V87.6073C1454.23 86.9583 1457.54 86.513 1460.87 86.2742ZM1457.96 92.3675L1457.95 111.123C1462.85 111.498 1468.66 111.95 1473.3 109.986C1480.53 106.155 1479.96 94.7573 1471.97 92.4931C1469.02 91.6575 1464.78 91.4951 1461.73 91.8884L1457.96 92.3675Z" fill="white"/>
<path d="M1059.54 86.0617C1064.41 85.9453 1067.38 86.1988 1072.11 87.0709L1072.11 99.0867C1057.38 96.3236 1045.11 98.6192 1048.46 116.976C1050.45 127.834 1064.4 126.219 1072.11 124.308C1072.11 126.023 1072.26 134.932 1071.98 136.237L1071.48 136.519C1068.71 137.248 1065.98 137.594 1063.2 137.764C1047.01 138.58 1033.59 132.566 1032.79 114.671C1031.95 96.1207 1041.36 87.0249 1059.54 86.0617Z" fill="white"/>
<path d="M1402.32 86.7004L1409.48 86.7016L1409.47 109.166C1409.46 119.206 1407.48 131.585 1421.37 131.723C1435.59 131.863 1433.61 119.331 1433.61 109.234L1433.6 86.6985L1440.59 86.7007V92.7747L1440.59 109.559C1440.62 124.614 1441.03 137.608 1421.81 137.802C1400.93 138.012 1402.31 122.766 1402.32 107.424L1402.32 86.7004Z" fill="white"/>
<path d="M1381.07 86.0563C1385.3 86.0469 1388.68 86.4626 1392.73 87.6038V93.637C1389.35 92.6448 1385.85 92.1101 1382.32 92.047C1378.75 91.9908 1374.78 92.3885 1372.01 94.9791C1370.54 96.354 1370.13 98.2805 1370.13 100.268C1370.14 107.6 1378.79 107.875 1383.96 109.719C1386.79 110.648 1389.47 111.94 1391.63 114.045C1396.49 118.774 1395.97 128.455 1391.19 133.073C1386.92 137.209 1380.75 137.853 1375.08 137.783C1370.7 137.482 1368.06 137.01 1363.9 135.737V129.659C1369.37 131.485 1382.72 133.671 1385.97 128.919C1393.33 118.182 1380.24 115.522 1372.98 113.541C1370.79 112.942 1368.09 111.096 1366.77 109.951C1361.58 105.442 1361.89 96.0722 1366.28 91.1503C1369.95 87.0771 1375.79 86.2725 1381.07 86.0563Z" fill="white"/>
<path d="M1227.92 165.81C1228.61 165.747 1229.31 165.696 1230.01 165.657C1236.48 165.333 1238.62 172.026 1234.65 176.297C1232.03 177.81 1230.32 177.51 1227.36 177.343C1227.35 175.54 1227.21 167.503 1227.48 166.078L1227.92 165.81ZM1228.99 176.051C1230.9 176.105 1231.89 176.231 1233.59 175.213C1235.17 172.939 1235.57 169.451 1233.01 167.712C1231.74 166.848 1230.56 166.981 1229.09 167.087C1228.86 168.304 1228.98 174.477 1228.99 176.051Z" fill="white"/>
<path d="M1208.49 150.217C1210.14 150.145 1210.75 150.259 1212.37 150.53C1212.32 153.649 1212.78 157.234 1212.05 160.215C1211.44 162.666 1207.56 163.23 1205.81 161.806C1205.61 161.19 1205.59 161.423 1205.84 160.876L1206.39 160.979C1207.41 161.165 1208.77 161.314 1209.75 160.846C1210.59 160.439 1210.99 158.897 1210.56 158.121C1210.04 158.492 1209.64 158.761 1209.02 158.95C1208.38 159.15 1207.69 159.076 1207.11 158.746C1204.14 157.101 1204.13 151.502 1208.49 150.217ZM1208.77 157.724C1211.58 157.037 1210.88 154.446 1210.68 152.049C1210.61 151.312 1209.25 151.46 1208.65 151.466C1205.97 152.803 1205.97 156.767 1208.77 157.724Z" fill="white"/>
<path d="M1369.09 165.819C1371.74 165.479 1375.15 165.362 1376.49 168.205C1377.39 170.099 1375.35 171.869 1373.79 172.517C1374.49 173.534 1376.83 176.288 1376.93 177.307C1376.07 177.53 1375.64 177.466 1375.05 176.856L1372.09 172.735L1370.18 172.668C1370.17 173.974 1370.69 177.14 1369.29 177.688C1369 177.62 1368.84 177.369 1368.63 177.131C1368.43 175.839 1368.46 167.404 1368.65 166.073L1369.09 165.819ZM1370.18 171.386C1371.94 171.495 1372.75 171.61 1374.34 170.78C1376.15 167.003 1372.9 166.786 1370.18 167.049V171.386Z" fill="white"/>
<path d="M1268.15 146.193C1268.62 146.196 1269.09 146.206 1269.56 146.223C1270.12 147.131 1269.47 150.153 1269.91 150.987C1274.66 148.133 1276.41 153.321 1274.72 157.412C1272.67 159.529 1270.81 159.119 1268.14 158.672L1268.15 146.193ZM1272.6 157.463C1274.37 155.586 1274.39 151.469 1271.33 151.611C1271.08 151.624 1270.82 151.642 1270.57 151.667C1269.38 152.896 1269.28 155.885 1270.15 157.379C1271 157.885 1271.41 157.765 1272.41 157.511L1272.6 157.463Z" fill="white"/>
<path d="M1179.11 146.191C1179.74 146.169 1180.02 146.207 1180.64 146.295C1180.65 146.334 1180.73 146.628 1180.73 146.705C1180.77 150.683 1180.78 154.672 1180.72 158.65C1180.6 158.798 1180.5 158.917 1180.42 159.006C1179.15 158.915 1179.74 157.711 1178.36 158.536C1177.53 159.027 1176.96 159.039 1176.03 159.001C1175.48 158.778 1174.85 158.404 1174.47 157.939C1173.64 156.947 1173.25 155.663 1173.39 154.378C1173.73 151.046 1176.08 149.945 1179.11 150.301V146.191ZM1177.24 157.74C1177.75 157.567 1178.61 157.389 1178.82 156.84C1179.28 155.617 1179.56 152.843 1178.88 151.662C1178.17 151.404 1177.79 151.453 1177.05 151.476C1174.38 152.793 1174.4 156.872 1176.96 157.658C1177.06 157.687 1177.15 157.714 1177.24 157.74Z" fill="white"/>
<path d="M1388.5 146.184C1389.15 146.165 1389.43 146.132 1390.06 146.346C1390.35 147.398 1390.14 157.063 1390.11 158.689L1389.69 159.031C1389.11 158.877 1389.06 158.671 1388.62 158.19C1387.04 158.776 1387.23 159.071 1385.47 159.011C1384.83 158.764 1384.26 158.439 1383.83 157.909C1383.02 156.938 1382.63 155.68 1382.77 154.421C1383.1 151.013 1385.44 149.985 1388.5 150.292V146.184ZM1386.64 157.74C1387.14 157.569 1388 157.384 1388.2 156.848C1388.68 155.596 1388.95 152.904 1388.3 151.673C1387.61 151.409 1387.21 151.454 1386.49 151.468C1383.79 152.75 1383.85 156.775 1386.08 157.568C1386.26 157.633 1386.45 157.69 1386.64 157.74Z" fill="white"/>
<path d="M1195.65 164.653C1196.18 164.652 1196.66 164.693 1197.19 164.736C1197.48 165.506 1197.45 176.89 1196.98 177.482C1195.67 177.454 1196.34 176.184 1194.66 177.169C1194 177.557 1193.32 177.546 1192.58 177.505C1189.57 176.272 1189.01 172.177 1191.27 169.953C1192.65 168.586 1193.86 168.693 1195.65 168.74L1195.65 164.653ZM1194.02 176.288C1194.6 176.002 1195.24 175.829 1195.47 175.154C1195.97 173.673 1195.81 171.884 1195.58 170.364L1195.37 170.098C1194.68 170.015 1194.05 170.009 1193.36 170.052C1192.41 170.644 1191.99 171.181 1191.73 172.283C1191.5 173.287 1191.62 174.321 1192.18 175.201C1192.65 175.941 1193.21 176.114 1194.02 176.288Z" fill="white"/>
<path d="M1313.21 164.659C1313.86 164.645 1314.1 164.638 1314.76 164.762C1314.98 166.444 1314.84 175.273 1314.8 177.232L1314.45 177.552C1313.81 177.472 1313.82 177.284 1313.29 176.718C1312.23 177.215 1311.63 177.566 1310.45 177.565C1309.77 177.383 1309.16 177.099 1308.68 176.585C1307.84 175.697 1307.4 174.509 1307.44 173.287C1307.55 169.575 1310.03 168.615 1313.2 168.759L1313.21 164.659ZM1311.78 176.228C1312.28 175.952 1312.86 175.759 1313.03 175.163C1313.33 174.152 1313.67 171.237 1313.11 170.323C1313.02 170.174 1312.99 170.13 1312.83 170.098C1312.14 169.964 1311.48 170.03 1310.78 170.083C1309.78 170.809 1309.39 171.462 1309.2 172.692C1309.05 173.61 1309.23 174.603 1309.81 175.352C1310.31 176.02 1310.92 176.134 1311.69 176.219L1311.78 176.228Z" fill="white"/>
<path d="M1174.72 164.662C1175.32 164.644 1175.71 164.589 1176.26 164.849C1176.4 166.041 1176.44 176.667 1176.19 177.277L1175.65 177.503C1175.01 177.253 1175.21 177.361 1174.78 176.687C1173.36 177.101 1173.86 177.507 1171.97 177.567C1168.5 176.588 1168.04 172.142 1170.44 169.82C1171.76 168.55 1173.03 168.681 1174.72 168.762V164.662ZM1173.29 176.222C1173.84 175.919 1174.41 175.737 1174.58 175.062C1174.94 173.624 1174.96 171.888 1174.69 170.443C1174.53 170.243 1174.48 170.097 1174.21 170.072C1173.56 170.013 1172.95 170.021 1172.3 170.079C1171.29 170.801 1170.91 171.46 1170.72 172.689C1170.57 173.589 1170.74 174.555 1171.28 175.302C1171.71 175.885 1172.13 176.062 1172.81 176.162C1172.97 176.185 1173.13 176.205 1173.29 176.222Z" fill="white"/>
<path d="M1152.39 164.657C1152.47 164.656 1152.54 164.655 1152.62 164.655C1154.33 164.652 1154.15 165.475 1154.09 166.968C1154.05 167.854 1154.03 168.745 1154.03 169.633C1158.77 166.538 1160.73 171.836 1158.92 175.93C1156.89 178.047 1155.05 177.627 1152.39 177.188L1152.39 164.657ZM1156.59 176.087C1157.54 175.346 1157.88 174.582 1158.03 173.392C1158.15 172.512 1157.93 171.521 1157.37 170.822C1156.82 170.143 1156.19 170.093 1155.39 170.017C1154.89 170.288 1154.35 170.463 1154.18 171.067C1153.78 172.446 1153.48 174.377 1154.24 175.677C1154.36 175.887 1154.56 176.037 1154.76 176.164C1155.41 176.305 1155.95 176.201 1156.59 176.087Z" fill="white"/>
<path d="M1040.33 164.659C1040.74 164.661 1041.23 164.702 1041.64 164.726C1042.21 165.382 1041.91 175.492 1041.9 177.122C1041.45 177.568 1041.67 177.473 1041.02 177.477C1040.77 177.235 1040.54 177.018 1040.32 176.747L1040.28 176.699C1038.86 177.386 1038.87 177.564 1037.31 177.524C1036.78 177.327 1036.16 176.991 1035.77 176.565C1034.94 175.653 1034.5 174.452 1034.54 173.219C1034.69 169.548 1037.22 168.637 1040.33 168.756L1040.33 164.659ZM1038.77 176.276C1039.31 175.987 1039.94 175.789 1040.14 175.155C1040.47 174.127 1040.79 171.276 1040.24 170.328C1040.15 170.179 1040.13 170.137 1039.96 170.104C1039.28 169.961 1038.61 170.027 1037.92 170.078C1036.9 170.808 1036.52 171.469 1036.32 172.711C1036.18 173.616 1036.39 174.605 1036.93 175.349C1037.42 176.015 1038.01 176.142 1038.77 176.276Z" fill="white"/>
<path d="M1275.1 164.661L1276.24 164.7C1277.11 165.713 1276.72 168.082 1276.71 169.664C1281.52 166.457 1283.37 171.866 1281.6 175.988C1279.59 178.026 1277.69 177.604 1275.1 177.207L1275.1 164.661ZM1279.36 176.051C1280.3 175.248 1280.66 174.399 1280.75 173.164C1280.81 172.308 1280.56 171.38 1279.98 170.733C1279.43 170.116 1278.79 170.066 1278.02 170.043L1277.94 170.041C1277.38 170.406 1276.94 170.591 1276.79 171.306C1276.44 172.943 1276.21 174.269 1276.99 175.805C1277.51 176.199 1277.79 176.317 1278.48 176.216C1278.77 176.171 1279.07 176.111 1279.36 176.051Z" fill="white"/>
<path d="M1348.88 164.659C1349.53 164.641 1349.71 164.644 1350.34 164.791C1350.6 165.542 1350.59 176.422 1350.36 177.317L1349.84 177.558C1349.23 177.326 1349.33 177.272 1348.91 176.691C1347.47 177.339 1347.42 177.568 1345.87 177.524C1345.35 177.333 1344.74 177.01 1344.36 176.599C1343.5 175.687 1343.05 174.47 1343.09 173.219C1343.25 169.552 1345.77 168.638 1348.88 168.754V164.659ZM1347.33 176.274C1347.87 175.982 1348.49 175.784 1348.7 175.146C1349.03 174.119 1349.35 171.276 1348.79 170.329C1348.7 170.182 1348.68 170.141 1348.52 170.106C1347.83 169.96 1347.17 170.026 1346.47 170.078C1345.48 170.78 1345.1 171.409 1344.89 172.614C1344.72 173.538 1344.9 174.527 1345.45 175.302C1345.94 176.004 1346.54 176.139 1347.33 176.274Z" fill="white"/>
<path d="M1236.42 147.222L1237.16 147.17C1239.95 146.99 1243.37 147.42 1243.56 150.977C1243.61 152.007 1243.25 153.015 1242.56 153.776C1241.57 154.889 1240.48 155.085 1239.08 155.149C1238.49 155.151 1237.94 155.188 1237.36 155.226C1236.82 156.199 1237.69 157.791 1237.02 158.84L1236.43 158.94C1235.72 158.673 1235.9 158.85 1235.54 158.268C1235.56 156.669 1235.4 148.403 1235.74 147.486L1236.42 147.222ZM1237.23 153.829C1239.02 153.875 1239.7 154.029 1241.26 153.144C1242.97 149.311 1240.72 148.162 1237.23 148.493V153.829Z" fill="white"/>
<path d="M1395.64 165.807C1398.92 165.488 1405.18 165.701 1402.7 171.704C1402.18 172.943 1400.42 173.462 1399.14 173.715C1398.51 173.673 1397.79 173.545 1397.27 173.852C1396.27 175.041 1397.04 175.691 1396.88 177.212L1396.5 177.476C1395.98 177.457 1395.79 177.476 1395.34 177.22C1395.32 177.099 1395.27 176.654 1395.27 176.567C1395.43 174.895 1394.86 166.65 1395.64 165.807ZM1400.97 171.637C1402.72 167.829 1400.31 166.646 1396.91 167.039C1396.88 168.366 1396.29 172.582 1398.32 172.535C1398.99 172.52 1400.41 172.024 1400.97 171.637Z" fill="white"/>
<path d="M1103.03 147.237L1104.96 147.225L1108.7 155.482L1112.4 147.231L1114.36 147.229C1114.37 148.638 1114.52 158.309 1114.16 158.763C1113.39 158.933 1113.67 158.971 1113 158.685C1112.62 158.089 1112.8 153.674 1112.81 152.639L1112.83 149.493C1112.1 151.201 1110.23 156.719 1108.56 157.12C1107.22 156.582 1105.21 151.287 1104.51 149.7C1104.54 151.308 1104.95 157.285 1104.08 158.719C1103.99 158.881 1103.52 158.813 1103.26 158.809C1102.72 158.051 1102.95 148.722 1103.03 147.237Z" fill="white"/>
<path d="M1152.36 150.162C1152.65 150.167 1152.94 150.179 1153.23 150.199C1156.9 150.463 1157.42 155.734 1155.2 157.963C1153.56 159.612 1150.95 157.916 1150.83 160.257C1150.85 160.561 1150.9 161.267 1150.84 161.536C1150.74 161.935 1150.47 162.266 1150.09 162.435C1149.82 162.559 1149.7 162.461 1149.45 162.356C1149 161.685 1149.14 151.922 1149.23 150.533L1149.66 150.196C1150.22 150.361 1150.25 150.536 1150.68 150.99C1151.01 151.013 1152 150.37 1152.36 150.162ZM1153.68 157.42C1155.49 155.475 1155.46 151.341 1151.96 151.618C1151.86 151.626 1151.76 151.634 1151.66 151.644C1150.46 152.914 1150.26 155.87 1151.19 157.396C1151.9 157.825 1152.24 157.796 1153.11 157.573C1153.3 157.525 1153.49 157.474 1153.68 157.42Z" fill="white"/>
<path d="M1046.81 150.183C1050.88 150.169 1052.26 153.144 1050.89 156.979C1050.47 158.14 1049.45 158.644 1048.32 159.019C1042.54 159.21 1042.24 151.631 1046.81 150.183ZM1048.17 157.773C1050.46 156.289 1050.65 151.652 1046.97 151.424C1044.7 152.87 1044.44 157.535 1048.17 157.773Z" fill="white"/>
<path d="M1083.53 150.209C1084.14 150.187 1085.35 150.122 1085.88 150.401C1089.42 152.276 1089.21 157.413 1085.51 158.993C1081.54 159.137 1079.91 156.571 1081.03 152.583C1081.38 151.325 1082.36 150.705 1083.53 150.209ZM1085.15 157.764C1087.41 156.266 1087.56 151.663 1083.95 151.415C1081.63 152.858 1081.38 157.573 1085.15 157.764Z" fill="white"/>
<path d="M1394.68 150.203C1398.65 150.106 1400.18 152.662 1399.09 156.592C1398.75 157.841 1397.8 158.478 1396.65 158.99C1390.64 159.362 1390.23 151.996 1394.68 150.203ZM1396.29 157.757C1398.57 156.185 1398.61 151.375 1394.88 151.457C1392.79 153.138 1392.82 157.55 1395.75 157.735C1395.93 157.746 1396.11 157.753 1396.29 157.757Z" fill="white"/>
<path d="M1440.07 168.761C1440.83 168.719 1441.72 168.608 1442.46 168.872C1443.39 169.203 1444.15 169.969 1444.59 170.849C1445.2 172.081 1445.26 173.597 1444.81 174.888C1444.35 176.209 1443.66 176.863 1442.43 177.451C1441.63 177.523 1440.8 177.621 1440.03 177.359C1439.08 177.04 1438.31 176.267 1437.87 175.378C1437.27 174.147 1437.23 172.634 1437.67 171.346C1438.13 170.009 1438.82 169.363 1440.07 168.761ZM1442.16 176.18C1443.1 175.29 1443.41 174.307 1443.45 173.013C1443.48 172.168 1443.18 171.235 1442.59 170.62C1442.15 170.158 1441.77 170.033 1441.15 170.026C1440.85 170.023 1440.56 170.032 1440.26 170.068C1439.33 171.049 1439.02 172.155 1439.05 173.513C1439.06 174.28 1439.37 175.167 1439.93 175.701C1440.45 176.194 1440.96 176.249 1441.64 176.215C1441.79 176.207 1441.94 176.197 1442.09 176.185C1442.12 176.184 1442.14 176.181 1442.16 176.18Z" fill="white"/>
<path d="M1384.59 168.776C1385.35 168.725 1386.24 168.604 1386.99 168.853C1387.96 169.18 1388.77 169.979 1389.21 170.901C1389.8 172.149 1389.84 173.674 1389.37 174.966C1388.89 176.274 1388.2 176.903 1386.96 177.473C1386.19 177.534 1385.41 177.604 1384.66 177.37C1383.7 177.073 1382.94 176.304 1382.49 175.42C1381.88 174.217 1381.81 172.735 1382.22 171.46C1382.67 170.095 1383.34 169.42 1384.59 168.776ZM1386.56 176.255C1387.54 175.505 1387.83 174.763 1388 173.545C1388.13 172.586 1387.94 171.566 1387.34 170.79C1386.98 170.337 1386.58 170.082 1386 170.028C1385.65 169.995 1385.29 170.001 1384.94 170.022C1383.98 170.937 1383.67 171.93 1383.63 173.254C1383.61 174.092 1383.89 175.021 1384.47 175.638C1385 176.202 1385.55 176.252 1386.28 176.256C1386.37 176.257 1386.46 176.256 1386.56 176.255Z" fill="white"/>
<path d="M1083.13 168.761C1083.74 168.728 1084.99 168.626 1085.52 168.872C1089.13 170.542 1089.04 175.745 1085.5 177.45C1079.3 178.01 1079.01 170.745 1083.13 168.761ZM1085.05 176.226C1085.98 175.542 1086.28 174.832 1086.46 173.701C1086.62 172.687 1086.45 171.663 1085.83 170.826C1085.52 170.412 1085.14 170.113 1084.62 170.044C1084.25 169.995 1083.85 169.988 1083.47 169.999C1082.48 170.858 1082.2 171.765 1082.11 173.066C1082.06 173.924 1082.28 174.911 1082.86 175.571C1083.26 176.027 1083.7 176.209 1084.29 176.23C1084.54 176.238 1084.8 176.236 1085.05 176.226Z" fill="white"/>
<path d="M1122.05 168.758C1125.97 168.557 1127.67 170.786 1126.76 174.858C1126.48 176.126 1125.55 176.888 1124.4 177.445C1118.19 178.035 1117.9 170.717 1122.05 168.758ZM1123.97 176.22C1124.95 175.447 1125.23 174.665 1125.38 173.432C1125.49 172.511 1125.28 171.552 1124.71 170.812C1124.34 170.336 1123.96 170.089 1123.36 170.034C1122.98 169.999 1122.6 170.02 1122.22 170.059C1121.3 171.019 1120.99 172.138 1121.01 173.473C1121.02 174.25 1121.33 175.188 1121.9 175.728C1122.51 176.296 1123.2 176.264 1123.97 176.22Z" fill="white"/>
<path d="M1247.62 150.195C1253.46 149.827 1253.9 157.591 1249.16 159.028C1247.1 159.03 1245.77 158.587 1244.98 156.495C1244.47 155.133 1244.52 153.624 1245.13 152.301C1245.72 151.021 1246.36 150.653 1247.62 150.195ZM1249.22 157.741C1251.35 156.102 1251.18 151.717 1248.55 151.478C1248.3 151.457 1248.04 151.445 1247.79 151.441C1245.56 153.098 1245.47 157.787 1249.22 157.741Z" fill="white"/>
<path d="M1286.11 168.784C1286.9 168.728 1287.85 168.596 1288.61 168.876C1289.6 169.238 1290.38 170.05 1290.81 171C1291.38 172.266 1291.38 173.788 1290.88 175.075C1290.39 176.344 1289.7 176.934 1288.49 177.479C1287.76 177.532 1287.02 177.596 1286.31 177.398C1285.36 177.135 1284.59 176.425 1284.12 175.565C1283.47 174.374 1283.37 172.851 1283.76 171.56C1284.19 170.148 1284.84 169.467 1286.11 168.784ZM1288.22 176.207C1289.21 175.358 1289.5 174.445 1289.59 173.157C1289.66 172.276 1289.36 171.287 1288.76 170.631C1288.32 170.152 1287.92 170.035 1287.3 170.022C1287.02 170.018 1286.75 170.022 1286.47 170.034C1285.51 170.954 1285.23 171.975 1285.19 173.295C1285.17 174.113 1285.46 175.069 1286.04 175.661C1286.51 176.139 1286.98 176.241 1287.62 176.231C1287.82 176.228 1288.02 176.22 1288.22 176.207Z" fill="white"/>
<path d="M1308.22 147.236L1310.57 147.23C1311.86 150.954 1313.12 154.831 1314.44 158.523L1314.27 158.837C1311.49 159.21 1313.01 155.691 1311.11 155.304L1307.05 155.305C1306.78 156.254 1306.44 157.741 1305.86 158.487C1305.15 158.907 1305.45 158.809 1304.53 158.769C1304.24 158.07 1307.79 148.491 1308.22 147.236ZM1310.04 153.908C1310.6 153.886 1310.84 153.988 1311.15 153.659C1310.85 152.733 1309.7 149.109 1309.32 148.513C1308.81 150.087 1307.51 152.636 1308.04 153.745C1308.56 154.068 1309.4 153.939 1310.04 153.908Z" fill="white"/>
<path d="M1198.03 147.237L1200.31 147.233C1200.95 149.155 1204.16 157.466 1203.88 158.839L1203.21 159.18L1203.78 159.039L1203.04 159.07C1202.11 158.367 1202.13 156.662 1201.38 155.381L1200.81 155.304L1196.81 155.305C1196.23 156.979 1196.39 158.608 1194.4 158.768L1194.18 158.536C1194.52 156.949 1197.32 148.831 1198.03 147.237ZM1199.73 153.907C1200.24 153.892 1200.52 153.975 1200.88 153.71C1200.61 152.803 1199.48 149.144 1199.06 148.541C1198.56 150.015 1197.25 152.668 1197.74 153.745C1198.25 154.067 1199.1 153.937 1199.73 153.907Z" fill="white"/>
<path d="M1261.7 168.775C1262.12 168.807 1262.54 168.845 1262.96 168.889C1263.08 169.121 1263.18 169.352 1263.28 169.593C1263.9 169.246 1264.76 168.71 1265.47 168.607C1266.4 168.473 1267.16 169.529 1267.93 169.515C1269.23 169.493 1270.42 168.429 1271.83 168.833C1272.19 169.065 1272.4 169.301 1272.56 169.7C1273.08 170.965 1273.32 176.205 1272.84 177.361L1271.89 177.372C1270.41 175.894 1272.1 172.553 1271.04 170.72C1270.86 170.415 1270.62 170.197 1270.27 170.131C1269.51 169.986 1268.71 170.537 1268.13 170.959C1268.34 172.937 1268.29 175.263 1268.13 177.248C1267.76 177.468 1267.43 177.39 1267.02 177.335C1265.72 175.925 1267.14 172.881 1266.46 171.082C1266.33 170.729 1266.09 170.437 1265.75 170.288C1265.36 170.117 1264.8 170.078 1264.4 170.25C1262.26 171.177 1263.89 175.516 1263.24 177.327C1262.79 177.448 1262.4 177.365 1261.94 177.283C1261.87 177.174 1261.7 176.99 1261.66 176.872C1261.53 176.535 1261.7 169.727 1261.7 168.775Z" fill="white"/>
<path d="M1056.25 150.175C1056.88 150.179 1057.62 150.118 1058.13 150.512C1059.47 151.54 1060.71 149.868 1062.21 150.187C1065.13 150.811 1064.54 156.389 1064.17 158.615C1063.68 158.91 1063.89 158.868 1063.34 158.795C1061.84 157.496 1063.75 151.682 1061.2 151.377C1060.56 151.575 1060.16 152.013 1059.66 152.471C1059.39 153.248 1059.51 155.788 1059.52 156.745C1059.54 157.335 1059.51 157.692 1059.46 158.271C1058.96 158.867 1059.2 158.703 1058.49 158.972L1058.12 158.649C1057.56 156.994 1058.56 152.9 1057.34 151.861C1056.9 151.677 1056.75 151.642 1056.3 151.68C1053.08 151.949 1055.6 156.841 1054.54 158.713C1054.49 158.803 1053.73 158.809 1053.54 158.82C1052.72 158.263 1052.9 151.335 1053.28 150.739C1055.21 150.578 1054.31 151.218 1056.25 150.175Z" fill="white"/>
<path d="M1283.32 150.179C1285.5 150.11 1286.97 150.789 1287.36 153.188C1287.45 153.785 1287.56 154.133 1287.29 154.717C1285.88 156.073 1283.21 154.126 1282.23 155.613C1282.37 158.038 1284.56 157.738 1286.29 157.643C1286.57 157.494 1286.49 157.541 1286.87 157.594L1286.99 158.142C1286 159.582 1283.14 159.307 1282.02 158.286C1279.45 155.937 1279.88 151.404 1283.32 150.179ZM1284.88 154.057L1285.67 153.996C1286.52 152.575 1285.04 151.466 1283.71 151.191C1282.67 151.812 1281.68 152.549 1282.45 153.752C1283.12 154.277 1283.99 154.056 1284.88 154.057Z" fill="white"/>
<path d="M1354.69 168.757C1355.16 168.719 1355.62 168.704 1356.09 168.736C1356.93 168.794 1357.56 169.02 1358.12 169.68C1358.64 170.289 1359.48 171.545 1359.4 172.386C1359.17 174.545 1355.24 173.002 1354.09 173.952C1353.97 174.048 1353.97 174.085 1353.96 174.236C1353.92 174.641 1354.23 175.279 1354.51 175.57C1355.19 176.27 1356.27 176.237 1357.16 176.228C1357.53 176.142 1357.88 176.062 1358.26 176.04C1358.5 176.027 1358.64 176.234 1358.81 176.387L1358.78 176.78C1358.63 176.952 1358.46 177.103 1358.26 177.215C1357.41 177.68 1355.94 177.702 1355.03 177.431C1354.04 177.134 1353.23 176.494 1352.74 175.577C1352.06 174.324 1352 172.735 1352.42 171.39C1352.83 170.034 1353.46 169.399 1354.69 168.757ZM1356.91 172.576L1357.45 172.523C1357.68 172.05 1357.7 171.771 1357.52 171.263C1357.37 170.836 1356.84 170.136 1356.42 169.955C1356.04 169.787 1355.48 169.806 1355.07 169.794C1354.57 170.299 1353.87 170.972 1353.88 171.73C1353.88 172.044 1354.07 172.155 1354.27 172.375C1355.04 172.766 1356.06 172.611 1356.91 172.576Z" fill="white"/>
<path d="M1185.26 150.182C1188.94 150.174 1189.29 151.86 1189.45 155.109C1187.99 155.131 1185.04 154.572 1184.24 155.774C1184.39 157.997 1186.67 157.734 1188.24 157.65C1188.36 157.579 1188.61 157.567 1188.77 157.547L1188.96 158.047C1188.73 158.479 1188.7 158.651 1188.19 158.837C1182.39 160.95 1180.01 152.122 1185.26 150.182ZM1186.83 154.056L1187.62 154.002C1188.59 152.74 1186.97 151.349 1185.66 151.196C1184.63 151.827 1183.68 152.57 1184.42 153.754C1185.06 154.268 1185.96 154.058 1186.83 154.056Z" fill="white"/>
<path d="M1046.13 168.758C1046.19 168.752 1046.25 168.747 1046.31 168.743C1050.01 168.486 1050.52 170.415 1050.66 173.625C1049.24 173.65 1045.67 172.935 1045.41 174.56C1046.01 176.175 1046.97 176.207 1048.47 176.251C1049.38 176.021 1049.62 175.775 1050.28 176.473L1050.19 176.845C1047.11 179.599 1042.05 175.384 1043.86 171.4C1044.6 169.757 1044.45 169.642 1046.13 168.758ZM1048.36 172.576L1048.95 172.485C1049.12 171.996 1049.16 171.634 1048.92 171.142C1048.71 170.707 1048.23 170.06 1047.76 169.921C1047.43 169.824 1047.05 169.819 1046.71 169.801C1046.64 169.798 1046.58 169.797 1046.51 169.797C1046.02 170.301 1045.32 170.973 1045.33 171.73C1045.33 172.043 1045.51 172.152 1045.71 172.372C1046.48 172.766 1047.51 172.611 1048.36 172.576Z" fill="white"/>
<path d="M1255.55 168.762L1255.62 168.757C1256.76 168.664 1257.98 168.663 1258.88 169.475C1260.04 170.508 1260.05 172.192 1260.11 173.624C1258.92 173.658 1256.13 173.136 1255.23 173.837C1254.93 174.07 1254.97 174.298 1254.93 174.653C1255.02 174.951 1255.13 175.297 1255.34 175.531C1255.97 176.22 1257.07 176.221 1257.93 176.255C1258.26 176.169 1258.66 176.039 1259 176.037C1259.39 176.034 1259.46 176.204 1259.72 176.465C1259.62 176.834 1259.62 177.023 1259.23 177.182C1255.18 178.814 1252.11 175.476 1253.3 171.447C1253.74 169.953 1254.29 169.447 1255.55 168.762ZM1257.79 172.576L1258.41 172.488C1258.57 171.998 1258.63 171.627 1258.38 171.138C1258.16 170.703 1257.68 170.048 1257.2 169.915C1256.81 169.81 1256.34 169.805 1255.95 169.807C1255.41 170.353 1255.08 170.816 1254.78 171.527L1254.84 172.057C1255.78 172.797 1256.64 172.625 1257.79 172.576Z" fill="white"/>
<path d="M1240.29 168.757L1240.36 168.751C1244.15 168.488 1244.64 170.293 1244.81 173.624C1243.39 173.652 1239.85 172.936 1239.57 174.559C1240.14 176.188 1241.17 176.209 1242.65 176.253C1243.4 176.094 1243.74 175.869 1244.34 176.319L1244.29 176.743C1243.41 177.641 1241.56 177.735 1240.41 177.385C1237.83 176.606 1237.36 173.53 1238.09 171.266C1238.54 169.855 1239.01 169.419 1240.29 168.757ZM1242.52 172.576L1243.1 172.482C1243.28 171.969 1243.29 171.61 1243.06 171.103C1242.85 170.647 1242.33 170.031 1241.84 169.889C1241.48 169.784 1241.05 169.796 1240.68 169.795C1240.18 170.298 1239.47 170.969 1239.49 171.73C1239.49 172.042 1239.68 172.154 1239.88 172.372C1240.65 172.766 1241.67 172.611 1242.52 172.576Z" fill="white"/>
<path d="M1201.39 168.776C1201.65 168.75 1201.9 168.733 1202.16 168.722C1205.53 168.597 1205.9 170.878 1205.97 173.624C1204.83 173.633 1201.52 173.352 1200.77 173.859V173.914C1200.74 176.041 1202.25 176.231 1203.92 176.241C1204.83 176.001 1204.98 175.808 1205.6 176.469L1205.52 176.858C1204.7 177.656 1203.05 177.704 1201.99 177.459C1199.43 176.863 1198.47 173.989 1199.13 171.641C1199.56 170.105 1200.04 169.548 1201.39 168.776ZM1203.82 172.576L1204.3 172.51C1204.46 171.977 1204.48 171.548 1204.21 171.034C1203.99 170.606 1203.51 170.025 1203.03 169.894C1202.66 169.789 1202.19 169.822 1201.8 169.834C1201.29 170.379 1200.96 170.826 1200.69 171.526C1200.72 171.882 1200.7 172.044 1200.99 172.287C1201.64 172.816 1203.01 172.61 1203.82 172.576Z" fill="white"/>
<path d="M1261.76 150.206C1266.71 149.954 1266.23 153.251 1266.21 157.152C1266.21 157.746 1266.15 158.59 1265.7 159.003C1264.68 158.973 1264.84 158.043 1264.34 158.226C1262.27 158.977 1262.81 159.322 1260.52 158.693C1260.35 158.531 1260.18 158.361 1260.06 158.159C1257.75 154.432 1262.33 154.661 1264.22 153.436C1265.7 150.839 1260.97 151.917 1260.15 151.444L1260.09 150.835C1260.53 150.28 1260.89 150.381 1261.76 150.206ZM1262.02 157.899C1263.47 157.724 1265.35 156.818 1264.4 155.057C1264.09 154.958 1264.02 154.911 1263.72 154.978C1262.39 155.112 1261.25 155.126 1261.17 156.723C1261.44 157.34 1261.5 157.475 1262.02 157.899Z" fill="white"/>
<path d="M1225.2 150.206C1229.11 149.939 1229.71 151.929 1229.7 155.519C1229.69 156.548 1229.78 158.223 1229.15 159.018C1227.94 158.955 1228.53 157.576 1226.82 158.626C1225.81 159.247 1225.03 158.984 1223.97 158.69C1223.63 158.365 1223.46 158.112 1223.25 157.699C1221.57 154.314 1225.81 154.697 1227.57 153.486C1227.82 153.311 1227.83 153.094 1227.94 152.8C1227.14 150.44 1225.06 152.284 1223.63 151.431L1223.54 150.833C1223.96 150.282 1224.35 150.379 1225.2 150.206ZM1225.47 157.895C1226.94 157.727 1228.78 156.83 1227.84 155.056C1227.53 154.958 1227.47 154.912 1227.18 154.978C1225.85 155.114 1224.69 155.123 1224.63 156.723C1224.89 157.341 1224.96 157.466 1225.47 157.895Z" fill="white"/>
<path d="M1179.5 168.787C1180.49 168.705 1183.53 168.539 1183.99 169.639C1184.67 171.258 1184.93 175.68 1184.53 177.293C1183.38 178.095 1183.39 176.555 1182.92 176.747C1181.26 177.415 1181.38 177.631 1179.53 177.428C1178.95 177.068 1177.89 175.965 1177.8 175.303C1177.5 173.112 1181.4 172.546 1182.88 172.251C1183.07 171.73 1182.9 171.282 1182.76 170.745C1181.46 169.404 1180.82 170.42 1178.81 170.104C1178.51 169.625 1178.58 169.805 1178.73 169.116L1179.5 168.787ZM1181.43 176.416C1182.07 176.134 1182.68 175.887 1182.97 175.196C1183.19 174.67 1183.12 174.469 1182.95 173.957C1182.45 173.512 1182.31 173.48 1181.61 173.526C1181.4 173.54 1181.19 173.566 1180.98 173.592C1180.39 173.838 1180.06 174.002 1179.73 174.59C1179.69 175.127 1179.65 175.418 1180.02 175.863C1180.37 176.269 1180.94 176.357 1181.43 176.416Z" fill="white"/>
<path d="M1099.71 168.795C1102.58 168.565 1104.61 168.398 1104.81 171.891C1104.88 173.216 1105.2 176.144 1104.73 177.316C1103.29 178.142 1103.9 175.791 1101.6 177.407C1101.33 177.594 1100.22 177.467 1099.77 177.41C1099.6 177.314 1099.45 177.207 1099.3 177.091C1094.71 173.444 1103 172.407 1103.25 172.092C1103.23 171.415 1103.23 171.186 1102.9 170.573C1101.91 169.912 1100.41 170.137 1098.97 170.023L1098.81 169.393L1098.64 169.541L1098.67 169.74C1099.11 168.976 1098.87 169.221 1099.71 168.795ZM1101.86 176.378C1102.46 176.074 1103.07 175.791 1103.31 175.102C1103.52 174.49 1103.39 174.304 1103.11 173.762C1102.46 173.391 1101.99 173.544 1101.24 173.599C1100.65 173.849 1100.31 174.011 1099.99 174.608C1099.96 175.177 1099.94 175.401 1100.32 175.872C1100.68 176.319 1101.34 176.333 1101.86 176.378Z" fill="white"/>
<path d="M1060.79 168.798C1062.03 168.685 1064.87 168.472 1065.42 169.812C1066 171.23 1066.3 175.983 1065.83 177.32C1064.6 178.004 1064.54 176.573 1064.24 176.712C1062.64 177.438 1062.7 177.644 1060.85 177.408C1060.71 177.331 1060.59 177.248 1060.46 177.159C1059.95 176.792 1059.18 175.566 1059.15 175.023C1059 172.581 1063.65 172.893 1064.33 172.05C1064.31 171.339 1064.3 171.181 1063.98 170.553C1062.98 169.89 1061.53 170.157 1060.06 170.022L1059.9 169.395L1059.73 169.537L1059.78 169.761C1060.18 168.977 1059.95 169.227 1060.79 168.798ZM1062.77 176.437C1063.4 176.143 1064.07 175.885 1064.34 175.19C1064.57 174.601 1064.53 174.422 1064.33 173.859C1063.77 173.408 1063.28 173.496 1062.59 173.558C1061.98 173.733 1061.62 173.86 1061.21 174.38C1061.08 174.831 1060.93 175.19 1061.22 175.628C1061.59 176.212 1062.16 176.271 1062.77 176.437Z" fill="white"/>
<path d="M1216.01 168.827C1217.5 168.681 1219.05 168.51 1220.36 169.271C1221.35 170.547 1221.98 176.521 1220.86 177.539C1220.24 177.47 1220.28 177.301 1219.77 176.723C1218.2 177.35 1218.11 177.584 1216.42 177.49C1215.43 176.979 1214.88 176.522 1214.77 175.356C1214.44 171.678 1218.53 173.413 1219.64 172.148C1219.7 171.441 1219.67 171.309 1219.42 170.648C1218.01 169.323 1217.23 170.561 1215.53 170.076C1215.25 169.515 1215.29 169.748 1215.45 169.093L1216.01 168.827ZM1218.19 176.404C1218.84 176.095 1219.46 175.854 1219.71 175.109C1219.89 174.597 1219.83 174.442 1219.67 173.945C1219.28 173.577 1219.17 173.489 1218.61 173.503C1218.33 173.51 1218.04 173.552 1217.76 173.586C1217.19 173.808 1216.82 173.949 1216.48 174.497C1216.4 175.021 1216.33 175.279 1216.65 175.751C1216.98 176.248 1217.56 176.32 1218.11 176.394L1218.19 176.404Z" fill="white"/>
<path d="M1328.44 150.201C1328.53 150.195 1328.61 150.191 1328.7 150.19C1333.06 150.132 1332.81 152.95 1332.83 156.506C1332.84 157.422 1332.86 158.425 1332.19 159.061C1331.52 158.886 1331.62 158.614 1331.21 158.23C1331.01 158.045 1329.51 158.919 1329.11 158.988C1328.49 159.094 1327.77 158.87 1327.17 158.71C1327.08 158.635 1327 158.556 1326.92 158.475C1326.4 157.923 1325.92 156.957 1325.94 156.171C1326.62 153.989 1329.66 154.563 1330.98 153.633C1331.4 150.204 1328.09 152.265 1326.8 151.429L1326.71 150.833C1327.05 150.31 1327.65 150.365 1328.44 150.201ZM1328.87 157.96C1330.46 157.617 1331.19 157.19 1331.21 155.429L1330.91 154.984L1330.33 154.956C1329.1 155.084 1327.82 155.176 1327.75 156.717C1328.06 157.447 1328.22 157.542 1328.87 157.96Z" fill="white"/>
<path d="M1162.28 168.798C1163.45 168.69 1166.36 168.491 1166.89 169.762C1167.51 171.232 1167.78 175.919 1167.32 177.317C1166.06 178.022 1166.16 176.519 1165.68 176.733C1164.05 177.459 1164.18 177.646 1162.34 177.407C1162.19 177.322 1162.05 177.229 1161.92 177.128C1157.2 173.517 1165.63 172.361 1165.85 172.09C1165.82 171.373 1165.81 171.213 1165.48 170.568C1164.42 169.87 1163.07 170.183 1161.51 170.012L1161.38 169.397L1161.23 169.519L1161.25 169.757C1161.67 168.971 1161.44 169.219 1162.28 168.798ZM1164.43 176.38C1165.03 176.077 1165.65 175.793 1165.89 175.1C1166.11 174.485 1165.97 174.296 1165.69 173.754C1165.03 173.392 1164.56 173.544 1163.82 173.602C1163.18 173.922 1162.98 174.039 1162.56 174.643C1162.54 175.192 1162.55 175.498 1162.96 175.93C1163.32 176.318 1163.93 176.335 1164.43 176.38Z" fill="white"/>
<path d="M1300.74 168.799C1301.9 168.696 1303.39 168.548 1304.49 168.998C1305.02 169.215 1305.22 169.496 1305.43 170.005C1306.08 171.54 1306.41 175.756 1305.79 177.317C1304.6 177.964 1304.93 176.778 1304.21 176.717C1303.84 176.685 1302.66 177.648 1300.81 177.401C1300.64 177.304 1300.49 177.197 1300.34 177.08C1299.79 176.647 1299.21 175.679 1299.14 174.973C1298.88 172.494 1303.39 173.166 1304.3 172.049C1304.29 171.461 1304.23 171.073 1303.95 170.549C1302.92 169.868 1301.29 170.143 1300.04 170.018L1299.88 169.398L1299.74 169.528L1299.81 169.784C1300.09 169.154 1300.13 169.122 1300.74 168.799ZM1302.75 176.443C1303.43 176.12 1304.09 175.859 1304.35 175.086C1304.54 174.528 1304.49 174.39 1304.3 173.861C1303.73 173.402 1303.25 173.495 1302.54 173.562C1301.95 173.74 1301.59 173.869 1301.18 174.381C1301.01 175.012 1301.03 175.084 1301.25 175.705C1301.69 176.233 1302.11 176.315 1302.75 176.443Z" fill="white"/>
<path d="M1405.64 168.822C1406.58 168.726 1407.71 168.627 1408.64 168.779C1409.18 168.866 1410.01 169.097 1410.32 169.584C1411.24 171.02 1411.21 175.618 1410.87 177.248L1410.43 177.533C1409.9 177.407 1409.76 177.13 1409.42 176.725C1408.18 177.21 1407.44 177.565 1406.07 177.491C1405.76 177.336 1405.46 177.169 1405.2 176.94C1404.72 176.516 1404.47 176.068 1404.42 175.424C1404.14 171.454 1407.89 173.785 1409.29 172.146C1409.34 171.569 1409.27 171.185 1409.06 170.648C1407.94 169.588 1406.62 170.315 1405.23 170.11L1404.97 169.758L1405.1 169.093L1405.64 168.822ZM1407.83 176.403C1408.49 176.1 1409.11 175.838 1409.37 175.102C1409.58 174.503 1409.45 174.311 1409.2 173.771C1408.55 173.395 1408.15 173.531 1407.42 173.582C1406.85 173.803 1406.47 173.941 1406.13 174.495C1406.04 175.018 1405.97 175.282 1406.29 175.753C1406.61 176.218 1407.13 176.306 1407.64 176.377C1407.71 176.387 1407.77 176.395 1407.83 176.403Z" fill="white"/>
<path d="M1351.27 150.226C1355.82 149.943 1356.11 152.08 1355.96 156.207C1355.94 156.78 1355.82 158.391 1355.58 158.832C1354.56 158.944 1354.98 158.398 1354.33 158.164C1354.04 158.059 1352.8 159.339 1350.39 158.728C1349.84 158.248 1349.15 157.148 1349.16 156.397C1349.18 153.778 1354.32 154.831 1354.23 152.573C1352.9 150.497 1351.05 152.294 1349.96 151.451L1349.9 150.944C1350.31 150.286 1350.35 150.448 1351.27 150.226ZM1352.09 157.968C1353.59 157.606 1354.41 157.175 1354.4 155.444L1354.12 154.989L1353.54 154.959C1352.28 155.09 1351.03 155.167 1350.94 156.716C1351.21 157.436 1351.47 157.563 1352.09 157.968Z" fill="white"/>
<path d="M1159.72 150.22C1162.36 150.053 1163.96 150.501 1164.33 153.571C1164.46 154.678 1164.47 158.118 1163.83 158.915L1163.38 158.939C1163.04 158.621 1162.96 158.501 1162.69 158.115C1161.08 159.213 1160.31 159.248 1158.49 158.563C1155.11 153.826 1161.94 154.939 1162.66 152.907C1162.18 150.587 1159.82 151.983 1158.3 151.585C1158.25 150.867 1158.17 151.078 1158.48 150.52L1159.72 150.22ZM1160.26 157.934C1161.85 157.683 1162.79 157.275 1162.78 155.449L1162.54 154.994L1161.94 154.961C1160.64 155.092 1159.36 155.148 1159.36 156.756C1159.65 157.391 1159.71 157.509 1160.26 157.934Z" fill="white"/>
<path d="M1332.49 168.813C1333.25 168.752 1334.05 168.697 1334.82 168.715C1335.52 168.731 1336.61 168.933 1337.1 169.491C1338.05 170.579 1337.96 175.153 1337.8 176.547C1337.74 177.092 1337.72 177.188 1337.29 177.535C1336.72 177.435 1336.73 177.35 1336.36 176.912C1336.32 176.864 1336.17 176.71 1336.11 176.711C1335.31 176.72 1334.68 177.617 1332.82 177.452C1332.65 177.365 1332.49 177.27 1332.33 177.166C1331.75 176.775 1331.06 175.759 1330.95 175.058C1330.53 172.555 1335.43 173.104 1336.18 172.061C1336.16 171.466 1336.1 171.072 1335.81 170.542C1334.78 169.86 1333.15 170.149 1331.9 170.043L1331.72 169.439C1331.91 169.093 1332.15 168.983 1332.49 168.813ZM1334.72 176.392C1335.36 176.086 1335.96 175.821 1336.22 175.102C1336.43 174.529 1336.33 174.341 1336.1 173.814C1335.45 173.386 1335.1 173.526 1334.34 173.576C1333.78 173.753 1333.42 173.889 1333.04 174.375C1332.87 175.011 1332.88 175.083 1333.11 175.705C1333.71 176.218 1333.97 176.249 1334.72 176.392Z" fill="white"/>
<path d="M1376.66 150.225C1379.22 150.068 1380.91 150.386 1381.31 153.477C1381.44 154.543 1381.41 158.153 1380.81 158.917L1380.34 158.941C1380.1 158.662 1379.91 158.444 1379.7 158.14L1379.65 158.076C1378.27 159.247 1377.27 159.17 1375.62 158.645C1375.22 158.244 1375.03 157.888 1374.8 157.375C1373.4 154.262 1377.75 154.518 1379.47 153.736C1380.59 150.645 1376.34 151.939 1375.33 151.452C1375.26 150.812 1375.21 151.053 1375.55 150.492L1376.66 150.225ZM1377.46 157.968C1378.96 157.606 1379.79 157.171 1379.78 155.441L1379.5 154.988L1378.91 154.959C1377.66 155.089 1376.39 155.167 1376.3 156.714C1376.58 157.439 1376.83 157.557 1377.46 157.968Z" fill="white"/>
<path d="M1071.22 165.742L1079.91 165.742C1078.01 168.982 1075.47 172.734 1073.41 175.95C1074.89 175.987 1077.93 175.583 1079.24 176.184C1079.51 176.309 1079.52 177.01 1079.57 177.392L1070.65 177.389C1072.72 174.02 1075.03 170.531 1077.17 167.186C1075.86 167.186 1072.63 167.515 1071.5 166.936C1071.28 166.823 1071.27 166.09 1071.22 165.742Z" fill="white"/>
<path d="M1038.88 147.184C1039.06 147.163 1039.23 147.148 1039.4 147.14C1040.59 147.084 1041.92 146.887 1042.76 147.672L1042.78 148.534C1041.6 149.219 1038.9 147.822 1037.6 149.437C1036.16 151.234 1036.05 155.191 1037.79 156.81C1038.85 157.788 1040.71 157.586 1042.02 157.466C1042.1 157.427 1042.51 157.347 1042.61 157.323C1042.91 157.732 1042.84 157.568 1042.81 158.137C1041.89 159.465 1038.55 159.226 1037.41 158.443C1033.27 155.601 1033.82 148.713 1038.88 147.184Z" fill="white"/>
<path d="M1114.09 165.772C1114.16 165.76 1114.24 165.75 1114.32 165.741C1115.23 165.639 1117.73 165.464 1118.39 166C1118.44 166.524 1118.48 166.687 1118.23 167.134C1116.21 167.222 1112.35 167.079 1112.14 169.671C1111.8 173.8 1112.7 176.494 1117 176.014C1117.71 175.861 1117.79 175.722 1118.38 175.965L1118.53 176.363C1118.22 176.848 1118.14 177.023 1117.57 177.205C1111.83 179.036 1109.04 173.566 1110.95 168.677C1111.63 166.939 1112.52 166.416 1114.09 165.772Z" fill="white"/>
<path d="M1296.05 157.497C1296.46 156.232 1298 151.048 1298.76 150.429C1299.29 150.389 1299.57 150.265 1299.94 150.524C1299.85 151.491 1298.96 153.652 1298.58 154.671C1298.04 156.24 1296.39 162.898 1294.4 162.264C1294.4 161.416 1294.91 160.317 1295.23 159.494L1291.89 150.326C1292.59 150.299 1292.81 150.288 1293.51 150.449C1294.18 151.5 1295.57 156.041 1296.05 157.497Z" fill="white"/>
<path d="M1137.57 168.815C1138.29 168.832 1138.65 168.716 1139.18 169.077C1139.64 170.96 1138.46 174.842 1140.02 176.068C1140.66 176.275 1141.04 176.17 1141.66 175.925C1143.93 175.01 1142.14 171.17 1142.9 169.228C1143.49 168.708 1143.29 168.852 1144.22 168.837C1144.56 169.268 1144.44 170.596 1144.42 171.225C1144.4 172.742 1144.82 176.719 1144.04 177.622C1143.56 177.572 1143.18 177.018 1142.83 176.635C1136.73 179.663 1137.59 174.202 1137.56 169.962C1137.56 169.584 1137.57 169.194 1137.57 168.815Z" fill="white"/>
<path d="M1316.89 168.81L1318.23 168.87C1319.33 169.957 1318.04 173.834 1318.89 175.629C1319.22 175.928 1319.33 176.081 1319.79 176.134C1320.45 176.211 1321.16 175.893 1321.67 175.486C1322.59 174.137 1322.07 172.053 1322.01 170.51C1321.98 169.908 1322.06 169.41 1322.47 168.953C1322.96 168.816 1323.06 168.775 1323.54 168.937C1323.95 169.512 1323.78 170.537 1323.75 171.225C1323.72 173.173 1324.05 175.324 1323.67 177.232L1323.2 177.403C1322.56 177.293 1322.54 177.317 1322.16 176.796C1321.17 176.661 1320.27 177.701 1319.2 177.721C1318.76 177.73 1318.38 177.507 1318.08 177.191C1316.35 175.338 1316.87 171.194 1316.89 168.81Z" fill="white"/>
<path d="M1413.01 168.738C1413.49 168.76 1413.9 168.823 1414.36 168.969L1414.51 169.521C1415.52 169.741 1416.56 168.367 1417.8 168.628C1418.39 168.753 1418.92 169.024 1419.24 169.55C1420.22 171.128 1420.26 175.146 1419.84 176.943C1419.76 177.271 1419.67 177.28 1419.4 177.449C1418.83 177.37 1418.76 177.358 1418.34 176.964C1418.13 175.432 1418.3 173.697 1418.32 172.144C1418.32 171.918 1418.31 171.687 1418.28 171.463C1418.25 171.209 1418.1 170.717 1417.89 170.561C1417.34 170.157 1416.73 170.076 1416.07 170.189C1413.25 170.672 1415.59 175.45 1414.42 177.139C1413.9 177.391 1413.82 177.406 1413.25 177.333C1412.72 176.577 1413.01 170.137 1413.01 168.738Z" fill="white"/>
<path d="M1093.5 150.167C1094.74 150.163 1095.73 150.225 1096.37 151.444C1097.21 153.032 1097.28 156.959 1096.8 158.609C1096.26 158.854 1096.09 158.732 1095.45 158.662C1093.97 156.656 1097.71 151.49 1092.85 151.673C1090.21 153.253 1092.45 155.973 1091.61 158.5C1091.19 158.924 1091.22 158.794 1090.49 158.829C1089.69 158.33 1089.79 151.441 1090.33 150.482C1090.86 150.169 1090.62 150.207 1091.26 150.371L1091.58 151.119C1092.29 150.683 1092.72 150.495 1093.5 150.167Z" fill="white"/>
<path d="M1089.79 168.796C1090.06 168.809 1090.64 168.762 1090.83 168.962C1092.12 170.29 1095.04 166.932 1096.28 169.988C1096.82 171.335 1097.03 176.066 1096.47 177.347C1095.81 177.506 1096.06 177.506 1095.39 177.271C1094.8 176.419 1095.05 173.448 1095.07 172.144C1095.12 170.589 1094 169.77 1092.57 170.045C1090.44 171.298 1091.93 176.135 1091.28 177.322C1090.7 177.403 1090.55 177.443 1090 177.265C1089.62 176.515 1089.79 170.197 1089.79 168.796Z" fill="white"/>
<path d="M1128.7 168.795L1129.91 168.847L1130.1 169.458C1131.13 169.649 1133.27 167.608 1134.87 169.418C1135.76 170.43 1136.01 176.673 1135.28 177.364C1134.45 177.402 1134.66 177.501 1134.03 177.138C1133.82 176.53 1133.94 173.224 1133.95 172.36C1133.97 171.302 1133.98 170.97 1133.15 170.276C1128.72 169.09 1130.84 175.188 1130.13 177.432L1129.52 177.709L1130.02 177.591L1129.14 177.358C1128.36 176.314 1128.69 170.49 1128.7 168.795Z" fill="white"/>
<path d="M1338.17 150.178C1342.22 150.157 1341.74 153.301 1341.8 156.45C1341.82 157.172 1341.71 157.918 1341.54 158.621C1341.14 158.873 1340.74 158.785 1340.26 158.743C1339.01 157.209 1341.18 153.797 1339.53 152.003C1338.82 151.546 1338.4 151.638 1337.56 151.693C1335.13 153.189 1337.05 157.442 1336.22 158.778C1335.47 158.983 1335.74 159.016 1335.1 158.715C1334.39 157.599 1334.85 152.748 1334.72 151.11C1334.67 150.449 1336.45 150.764 1336.77 150.832C1337.3 150.583 1337.77 150.364 1338.17 150.178Z" fill="white"/>
<path d="M1128.94 150.19C1133.18 150.036 1132.6 153.679 1132.67 156.832C1132.68 157.391 1132.64 158.396 1132.2 158.726C1131.46 158.752 1131.37 158.881 1130.82 158.518C1130.08 156.367 1132.86 151.821 1128.75 151.605C1125.23 153.058 1128.8 158.365 1126.52 158.911L1126.05 158.604C1125.28 157.239 1125.54 152.158 1125.73 150.492L1126.11 150.237C1126.69 150.369 1126.65 150.514 1127.08 151.039C1127.77 150.843 1128.31 150.527 1128.94 150.19Z" fill="white"/>
<path d="M1214.46 150.308C1215.17 150.329 1215.53 150.212 1216.02 150.584C1216.5 152.736 1215.19 156.109 1216.95 157.575C1217.42 157.687 1217.49 157.663 1217.93 157.583C1221.34 156.954 1218.7 152.649 1219.87 150.628C1220.53 150.234 1220.25 150.294 1220.99 150.362C1221.44 150.898 1221.29 151.897 1221.26 152.639C1221.24 154.26 1221.46 157.21 1221.2 158.659C1220.85 158.932 1220.48 158.871 1220.03 158.865L1219.86 158.18C1213.07 160.803 1214.42 154.89 1214.46 150.308Z" fill="white"/>
<path d="M1421.96 168.831L1423.21 168.837C1424.41 169.759 1422.77 174.233 1424.12 175.857C1424.28 176.053 1424.63 176.194 1424.88 176.208C1425.25 176.229 1426.27 175.976 1426.54 175.705C1427.28 174.976 1427.11 172.377 1427.17 171.328C1427.24 170.299 1427.2 169.272 1428 168.56L1428.5 168.817C1428.88 169.498 1428.75 170.24 1428.75 171.009C1428.73 172.615 1429.29 176.336 1428.39 177.559C1427.81 177.455 1427.64 177.075 1427.27 176.631C1426.44 177.013 1425.46 177.583 1424.54 177.589C1423.91 177.593 1423.31 177.414 1422.87 176.95C1421.33 175.345 1421.93 170.998 1421.96 168.831Z" fill="white"/>
<path d="M1116.63 150.309C1116.83 150.307 1117.93 150.274 1118.01 150.42C1118.99 152.164 1117.06 156.608 1119.35 157.633C1123.19 157.671 1121.53 153.339 1121.86 150.54L1122.16 150.332C1122.79 150.357 1122.96 150.259 1123.42 150.587L1123.43 152.639C1123.41 154.264 1123.63 157.205 1123.36 158.658C1123.02 158.93 1122.64 158.869 1122.2 158.862L1122.02 158.173C1115.23 160.787 1116.59 154.925 1116.63 150.309Z" fill="white"/>
<path d="M1254.85 147.24C1255.35 147.207 1255.42 147.209 1255.9 147.346C1256.37 148.069 1256.15 149.344 1256.12 150.328C1257.22 150.291 1257.9 150.045 1258.6 150.948L1258.4 151.369C1257.78 151.822 1256.92 151.683 1256.12 151.656C1256.15 153.409 1255.51 156.315 1256.98 157.442C1257.72 157.729 1258.13 157.613 1258.9 157.494C1258.81 158.18 1258.9 158.245 1258.51 158.749C1253.72 160.901 1254.69 154.619 1254.41 152.323C1254.35 151.8 1253.31 151.745 1253.04 151.403C1253.01 150.743 1252.88 150.679 1253.23 150.297L1254.29 150.325C1254.64 149.952 1254.75 147.941 1254.85 147.24Z" fill="white"/>
<path d="M1344.61 147.234C1345.09 147.199 1345.27 147.157 1345.7 147.375C1346.13 148.091 1345.93 149.399 1345.91 150.327C1346.23 150.316 1346.55 150.307 1346.87 150.302C1347.78 150.292 1347.83 150.318 1348.41 150.886L1348.29 151.309C1347.68 151.825 1346.73 151.681 1345.91 151.656C1345.89 153.267 1345.83 154.973 1345.94 156.571C1346.01 157.516 1348.03 157.422 1348.78 157.936C1348.67 158.241 1348.5 158.54 1348.36 158.829C1347.73 159.098 1346.38 159.092 1345.81 158.842C1343.37 157.779 1344.85 154.147 1344.17 152.245C1344 151.777 1343.56 151.73 1343.15 151.622C1342.72 151.175 1342.85 151.314 1342.78 150.535L1343.07 150.262L1343.96 150.347C1344.53 149.865 1344.51 148.169 1344.61 147.234Z" fill="white"/>
<path d="M1072.13 150.222C1072.95 150.16 1074.42 150.074 1075.12 150.491C1075.48 151.047 1075.4 150.816 1075.36 151.55C1075.2 151.541 1075.05 151.533 1074.89 151.529C1073.38 151.482 1072.35 151.277 1071.26 152.31L1071.26 152.725C1072.45 154.181 1077.15 154.523 1075.59 157.582C1075.14 158.466 1074.16 158.754 1073.28 159.011C1072.36 159.014 1071.19 159.094 1070.36 158.749C1069.88 158.243 1070.01 158.467 1069.98 157.662C1071.06 157.092 1073.25 158.616 1074.57 156.824C1074.01 155.258 1066.85 153.885 1070.44 151.095C1071.04 150.627 1071.41 150.428 1072.13 150.222Z" fill="white"/>
<path d="M1248.02 168.781C1249.05 168.702 1251.75 168.318 1251.68 169.869C1250.63 170.692 1248.95 169.076 1247.42 170.89L1247.47 171.291C1248.54 172.521 1251.49 172.691 1251.99 174.517C1252.51 176.424 1250.73 177.19 1249.34 177.544C1248.46 177.568 1247.01 177.606 1246.32 177.107C1246.01 176.486 1246.07 176.73 1246.2 175.97C1247.58 176.21 1249.53 176.814 1250.42 175.416C1250.12 173.567 1247.04 173.879 1245.83 171.576C1245.7 170.012 1246.7 169.374 1248.02 168.781Z" fill="white"/>
<path d="M1322.46 150.206C1323.48 150.169 1324.45 149.993 1325.18 150.663C1325.17 150.887 1325.15 151.164 1325.14 151.495C1323.96 152.124 1322.44 151.321 1321.42 152.269C1320.81 153.227 1320.75 154.749 1320.98 155.826C1321.49 158.153 1323.6 157.707 1325.2 157.343L1325.19 158.259C1322.29 162.689 1314.38 152.386 1322.46 150.206Z" fill="white"/>
<path d="M1141.18 150.212C1142.05 150.193 1143.05 150.104 1143.84 150.431C1144.06 150.935 1143.96 150.985 1143.9 151.586C1143.44 151.84 1141.99 151.534 1141.37 151.643C1139.24 152.021 1139.1 156.22 1140.7 157.275C1141.7 157.938 1142.92 157.583 1144.02 157.35L1143.97 158.265C1142.71 160.482 1139.15 158.543 1138.32 156.575C1137.09 153.631 1137.92 151.159 1141.18 150.212Z" fill="white"/>
<path d="M1433.41 168.768C1434.29 168.714 1435.68 168.485 1436.43 169.048C1436.51 169.456 1436.53 169.688 1436.37 170.077C1435.49 170.451 1434.58 170.213 1433.66 170.351C1433.25 170.413 1432.9 170.519 1432.65 170.873C1432.06 171.68 1432.1 173.155 1432.25 174.098C1432.35 174.727 1432.59 175.349 1433.13 175.726C1434.15 176.437 1435.39 176.104 1436.51 175.895C1436.55 176.304 1436.5 176.615 1436.4 177.012C1436.19 177.239 1435.95 177.492 1435.66 177.609C1434.97 177.884 1434 177.715 1433.34 177.437C1432.11 176.935 1431.15 175.949 1430.67 174.711C1430.26 173.682 1430.1 172.382 1430.56 171.343C1431.15 169.995 1432.09 169.286 1433.41 168.768Z" fill="white"/>
<path d="M1295.38 168.764C1295.52 168.755 1295.67 168.747 1295.81 168.74C1296.53 168.702 1297.82 168.549 1298.39 169.07L1298.4 169.995C1297.94 170.419 1296.57 170.084 1295.9 170.158C1295.46 170.208 1295 170.434 1294.74 170.794C1294.1 171.658 1294.01 173.038 1294.17 174.064C1294.27 174.655 1294.5 175.314 1295.01 175.668C1296.11 176.44 1297.3 176.113 1298.52 175.883C1298.51 176.151 1298.51 176.476 1298.43 176.731C1298.31 177.114 1298.01 177.308 1297.65 177.459C1296.88 177.78 1295.95 177.681 1295.2 177.373C1294.03 176.897 1293.15 175.989 1292.68 174.819C1292.26 173.792 1292.01 172.364 1292.48 171.313C1293.06 169.988 1294.07 169.252 1295.38 168.764Z" fill="white"/>
<path d="M1056.07 164.66C1056.72 164.64 1057 164.602 1057.64 164.836C1057.93 167.217 1057.73 174.649 1057.72 177.397C1057.04 177.421 1056.8 177.452 1056.14 177.212C1055.85 174.727 1056.05 167.49 1056.07 164.66Z" fill="white"/>
<path d="M1277.11 146.188C1277.76 146.166 1278.04 146.126 1278.66 146.355C1278.93 147.427 1278.78 157.064 1278.77 158.854C1278.13 158.877 1277.85 158.915 1277.23 158.692C1276.88 157.655 1277.1 147.952 1277.11 146.188Z" fill="white"/>
<path d="M1315.82 146.186C1316.46 146.163 1316.75 146.12 1317.36 146.37C1317.61 147.546 1317.47 156.997 1317.46 158.854C1316.81 158.877 1316.55 158.912 1315.93 158.695C1315.59 157.659 1315.81 147.949 1315.82 146.186Z" fill="white"/>
<path d="M1360.8 164.653C1361.47 164.637 1361.69 164.616 1362.35 164.815C1362.65 167.069 1362.45 174.783 1362.45 177.433C1361.81 177.432 1361.49 177.466 1360.89 177.196C1360.67 175.949 1360.8 166.566 1360.8 164.653Z" fill="white"/>
<path d="M1371.35 146.191C1371.98 146.166 1372.23 146.137 1372.85 146.336C1373.14 147.265 1372.99 157.183 1372.98 158.862C1372.34 158.883 1372.03 158.931 1371.43 158.648C1371.2 157.464 1371.34 148.036 1371.35 146.191Z" fill="white"/>
<path d="M1211.42 164.658C1212.05 164.68 1212.53 164.582 1212.96 164.906C1213.26 167.396 1213.05 174.467 1213.04 177.402C1212.5 177.409 1211.93 177.489 1211.51 177.173C1211.22 175.157 1211.41 167.178 1211.42 164.658Z" fill="white"/>
<path d="M1166.34 146.172C1166.97 146.157 1167.2 146.132 1167.82 146.352C1168.14 147.197 1167.95 157.246 1167.94 158.872C1167.29 158.881 1167.11 158.859 1166.48 158.719C1166.17 158.118 1166.33 147.65 1166.34 146.172Z" fill="white"/>
<path d="M1367.56 146.171C1368.31 146.198 1368.5 146.093 1369.09 146.444C1369.38 149.285 1369.17 155.764 1369.16 158.869C1368.63 158.868 1368.02 158.946 1367.63 158.618C1367.35 155.818 1367.56 149.244 1367.56 146.171Z" fill="white"/>
<path d="M1146.57 168.712C1147.85 168.843 1147.49 168.818 1148.24 169.513C1148.33 169.588 1150.56 167.864 1151.43 169.417C1151.02 171.151 1149.82 169.995 1148.58 170.902C1148.11 171.733 1148.22 172.427 1148.24 173.386C1148.22 174.484 1148.54 176.087 1148.11 176.975C1147.5 177.423 1147.74 177.293 1146.87 177.358C1146.31 176.757 1146.57 170.105 1146.57 168.712Z" fill="white"/>
<path d="M1325.9 168.683C1326.77 168.824 1326.92 168.874 1327.53 169.511C1328.02 169.29 1328.59 168.957 1329.1 168.839C1329.58 168.729 1330.12 168.769 1330.53 169.043C1330.68 169.14 1330.68 169.428 1330.72 169.604C1330.15 170.953 1328.83 170.135 1327.86 170.964C1327.44 171.712 1327.53 172.555 1327.55 173.386C1327.54 174.231 1327.62 175.08 1327.63 175.926C1327.63 176.587 1327.52 176.872 1327.07 177.33C1326.67 177.398 1326.36 177.486 1326 177.262C1325.62 174.52 1325.88 171.464 1325.9 168.683Z" fill="white"/>
<path d="M1361.44 150.148L1362.3 150.295C1362.75 150.815 1362.67 150.578 1362.66 151.243C1361.97 152.357 1359.87 151.444 1359.6 152.955C1359.36 154.248 1360 157.696 1359.35 158.823L1358.28 159.072C1357.74 158.45 1357.71 150.912 1358.29 150.158L1358.72 150.124C1359.14 150.447 1359.29 150.789 1359.54 151.252L1360.01 151.158C1360.4 150.522 1360.76 150.43 1361.44 150.148Z" fill="white"/>
<path d="M1363.74 150.317C1364.4 150.299 1364.6 150.317 1365.24 150.44C1365.58 150.924 1365.41 157.8 1365.4 158.851C1364.79 158.871 1364.39 158.928 1363.82 158.682C1363.61 157.134 1363.73 152.12 1363.74 150.317Z" fill="white"/>
<path d="M1066.42 150.323C1067.02 150.304 1067.44 150.246 1067.99 150.501C1068.2 152.093 1068.08 157.025 1068.07 158.859C1067.42 158.876 1067.22 158.855 1066.59 158.737C1066.23 158.131 1066.41 151.458 1066.42 150.323Z" fill="white"/>
<path d="M1077.38 150.316C1077.94 150.307 1078.28 150.35 1078.84 150.421C1079.21 150.921 1079.03 157.78 1079.02 158.857C1078.39 158.874 1078.17 158.852 1077.55 158.744C1077.18 158.243 1077.37 151.388 1077.38 150.316Z" fill="white"/>
<path d="M1134.6 150.318C1135.2 150.302 1135.6 150.248 1136.16 150.497C1136.37 152.086 1136.25 157.028 1136.23 158.86C1135.58 158.878 1135.39 158.859 1134.75 158.729C1134.42 158.13 1134.59 151.461 1134.6 150.318Z" fill="white"/>
<path d="M1145.38 150.324C1146 150.303 1146.35 150.255 1146.93 150.483C1147.15 152.06 1147.02 157.038 1147.01 158.865C1146.37 158.882 1146.04 158.931 1145.44 158.649C1145.25 157.826 1145.37 151.564 1145.38 150.324Z" fill="white"/>
<path d="M1378.7 168.828C1379.21 168.817 1379.76 168.749 1380.23 168.964C1380.57 171.661 1380.33 174.67 1380.32 177.402C1379.79 177.415 1379.35 177.413 1378.84 177.252C1378.23 175.143 1378.68 171.139 1378.7 168.828Z" fill="white"/>
<path d="M1380.47 164.662C1380.93 164.644 1381.42 164.569 1381.79 164.814C1381.82 165.691 1380.82 166.803 1380.24 167.616C1379.76 167.633 1379.53 167.67 1379.08 167.485C1379.08 166.566 1379.92 165.551 1380.47 164.662Z" fill="white"/>
<path d="M1408.77 164.665C1409.24 164.646 1409.69 164.585 1410.11 164.794C1410.16 165.658 1409.18 166.732 1408.6 167.552C1408.08 167.627 1407.93 167.669 1407.42 167.526C1407.29 166.74 1408.3 165.417 1408.77 164.665Z" fill="white"/>
<path d="M1085.45 146.194C1086.01 146.164 1086.27 146.109 1086.77 146.36C1086.8 147.182 1085.81 148.311 1085.27 149.08C1084.78 149.103 1084.52 149.15 1084.08 148.956C1084.04 148.143 1084.95 146.977 1085.45 146.194Z" fill="white"/>
<path d="M1066.83 146.758C1067.33 146.535 1067.91 146.743 1068.16 147.233C1068.41 147.723 1068.24 148.324 1067.77 148.602C1067.44 148.798 1067.03 148.793 1066.7 148.59C1066.37 148.387 1066.19 148.02 1066.21 147.636C1066.24 147.252 1066.48 146.914 1066.83 146.758Z" fill="white"/>
<path d="M1077.79 146.756C1078.29 146.538 1078.87 146.748 1079.12 147.235C1079.37 147.723 1079.2 148.32 1078.73 148.6C1078.4 148.796 1077.99 148.793 1077.66 148.59C1077.33 148.387 1077.15 148.018 1077.17 147.633C1077.2 147.248 1077.44 146.91 1077.79 146.756Z" fill="white"/>
<path d="M1364.16 146.757C1364.65 146.541 1365.22 146.739 1365.48 147.212C1365.73 147.685 1365.59 148.276 1365.14 148.573C1364.81 148.788 1364.4 148.802 1364.06 148.607C1363.72 148.412 1363.52 148.042 1363.54 147.651C1363.56 147.26 1363.8 146.914 1364.16 146.757Z" fill="white"/>
<path d="M1135.01 146.759C1135.51 146.536 1136.1 146.75 1136.35 147.244C1136.59 147.739 1136.41 148.34 1135.93 148.611C1135.6 148.798 1135.19 148.786 1134.87 148.581C1134.55 148.375 1134.37 148.009 1134.4 147.628C1134.42 147.247 1134.66 146.913 1135.01 146.759Z" fill="white"/>
<path d="M1145.78 146.761C1146.29 146.535 1146.88 146.754 1147.13 147.255C1147.37 147.757 1147.17 148.361 1146.68 148.622C1146.35 148.799 1145.95 148.78 1145.63 148.571C1145.32 148.363 1145.14 147.999 1145.17 147.621C1145.21 147.244 1145.44 146.914 1145.78 146.761Z" fill="white"/>
<path d="M918 76.4795L962.403 76.4885L975.829 76.4749C981.163 76.4713 986.185 76.2327 991.43 77.4776C998.025 79.051 1004.06 82.4359 1008.85 87.2544C1013.67 92.0942 1017.05 98.193 1018.6 104.862C1019.79 109.957 1019.56 114.902 1019.56 120.091L1019.56 133.576L1019.56 178.647L1013.36 178.657C998.66 178.486 983.649 178.639 968.926 178.631C955.725 178.658 944.085 180.025 932.941 171.505C923.281 164.118 919.769 156.286 918 144.698V115.087V109.495V76.4795Z" fill="#950536"/>
<path d="M918 109.495C918.9 110.631 918.769 111.143 918.73 112.637C921.301 115.222 941.83 136.339 942.791 136.571C943.079 136.097 943.094 136.027 943.155 135.475L943.379 135.493L943.392 135.693C942.963 136.315 943.145 140.537 943.157 141.609C944.891 141.166 945.737 140.918 947.367 140.077C947.249 140.37 947.157 140.593 947.071 140.903C947.64 141.957 948.828 143.054 949.823 143.699C947.092 145.393 945.911 147.62 943.159 148.974L943.172 154.702C944.922 154.243 945.365 154.174 946.946 153.234C950.297 151.243 952.016 147.208 956.303 148.279C955.584 148.372 955.058 148.287 954.69 148.727C957.073 152.071 980.296 173.857 980.155 174.805L979.991 174.903C976.854 174.388 973.275 173.482 970.133 172.77C971.26 174.481 968.164 177.214 968.926 178.631C955.725 178.658 944.085 180.025 932.941 171.504C923.281 164.118 919.769 156.286 918 144.698V115.087V109.495Z" fill="#430317"/>
<path d="M918 115.087C918.581 119.207 918.609 122.071 919.514 126.442C922.156 139.479 929.514 151.068 940.164 158.968C946.851 164.012 954.497 167.681 962.398 170.366C964.965 171.238 967.59 171.912 970.133 172.77C971.26 174.481 968.164 177.214 968.926 178.631C955.725 178.658 944.085 180.025 932.941 171.505C923.281 164.118 919.769 156.286 918 144.698V115.087Z" fill="#D9C59B"/>
<path d="M943.392 135.693L943.455 135.672C946.226 134.736 948.753 129.514 953.813 129.435C956.514 129.393 956.459 129.201 959.271 130.365C962.385 131.571 965.669 137.607 969.58 135.721C974.609 133.297 974.473 129.574 981.194 129.388C988.271 129.191 989.005 135.301 994.386 136.107L994.385 141.66C992.433 141.502 991.047 141.362 989.275 140.297C985.282 137.895 982.851 132.139 977.493 136.663C973.699 139.866 972.783 141.795 967.202 141.637C959.781 141.427 957.988 131.196 951.09 136.612C951.206 136.521 947.133 140.38 947.367 140.077C945.737 140.918 944.891 141.166 943.157 141.609C943.145 140.537 942.963 136.315 943.392 135.693Z" fill="white"/>
<path d="M949.823 143.699C952.919 142.325 955.06 142.007 958.447 143.063C962.722 144.345 964.963 150.852 970.084 148.604C971.367 148.041 972.726 146.678 973.716 145.666C976.769 142.543 980.717 141.716 984.83 143.054C988.761 144.333 990.156 148.682 994.385 149.158L994.384 154.774C992.354 154.56 991.01 154.399 989.198 153.305C985.629 151.151 982.652 145.369 977.822 149.434C973.791 152.826 972.793 154.961 966.926 154.662C961.468 154.385 959.558 149.266 956.303 148.279C952.016 147.208 950.297 151.243 946.946 153.234C945.365 154.174 944.922 154.243 943.172 154.702L943.159 148.974C945.911 147.62 947.093 145.393 949.823 143.699Z" fill="white"/>
<path d="M970.133 172.77C973.275 173.482 976.854 174.388 979.991 174.903C988.982 177.17 1000.09 177.401 1009.34 178.171C1010.33 178.254 1013.23 178.164 1014.01 178.408L1013.36 178.657C998.66 178.486 983.649 178.639 968.926 178.631C968.164 177.214 971.26 174.481 970.133 172.77Z" fill="#C0A36D"/>
<path d="M968.794 86.5615C970.047 88.0296 971.11 90.3863 972.465 91.9979C979.324 100.158 988.95 109.759 980.054 120.537C977.116 124.097 973.252 125.146 968.789 125.443C965.487 125.241 962.797 124.694 959.997 122.794C956.944 120.721 954.844 117.505 954.165 113.865C952.637 105.724 958.458 100.179 963.095 94.2877C965.253 91.5471 966.821 89.4565 968.794 86.5615Z" fill="white"/>
<path d="M968.651 95.3785C969.121 95.7202 970.679 97.6221 971.148 98.192C973.923 101.647 978.185 105.996 978.515 110.689C978.938 116.713 974.493 120.008 969.065 120.402C966.558 120.37 964.169 119.795 962.182 118.183C960.341 116.703 959.168 114.541 958.928 112.184C958.375 106.566 965.097 99.7445 968.651 95.3785Z" fill="#A92134"/>
<line x1="820" y1="4.37114e-08" x2="820" y2="264" stroke="white" stroke-opacity="0.62" stroke-width="2"/>
</svg>
